RobotoSerifDisplay-HairlineCondItalic.ufo
<glyph name="exclam" format="2">
  <advance width="160"/>
  <unicode hex="0021"/>
  <outline>
    <contour>
      <point x="155" y="735" type="line"/>
      <point x="133" y="560"/>
      <point x="99" y="392"/>
      <point x="72" y="175" type="curve"/>
      <point x="58" y="175" type="line"/>
      <point x="86" y="392"/>
      <point x="91" y="559"/>
      <point x="112" y="735" type="curve"/>
    </contour>
    <component base="period" xOffset="-17"/>
  </outline>
</glyph>
<glyph name="percent" format="2">
  <advance width="497"/>
  <unicode hex="0025"/>
  <outline>
    <contour>
      <point x="148" y="720" type="curve" smooth="yes"/>
      <point x="84" y="720"/>
      <point x="36" y="633"/>
      <point x="36" y="523" type="curve" smooth="yes"/>
      <point x="36" y="447"/>
      <point x="72" y="382"/>
      <point x="126" y="382" type="curve" smooth="yes"/>
      <point x="190" y="382"/>
      <point x="237" y="468"/>
      <point x="237" y="579" type="curve" smooth="yes"/>
      <point x="237" y="655"/>
      <point x="203" y="720"/>
    </contour>
    <contour>
      <point x="150" y="704" type="curve" smooth="yes"/>
      <point x="184" y="704"/>
      <point x="204" y="660"/>
      <point x="204" y="580" type="curve" smooth="yes"/>
      <point x="204" y="486"/>
      <point x="175" y="398"/>
      <point x="124" y="398" type="curve" smooth="yes"/>
      <point x="90" y="398"/>
      <point x="70" y="440"/>
      <point x="70" y="522" type="curve" smooth="yes"/>
      <point x="70" y="616"/>
      <point x="98" y="704"/>
    </contour>
    <contour>
      <point x="373" y="328" type="curve" smooth="yes"/>
      <point x="308" y="328"/>
      <point x="261" y="241"/>
      <point x="261" y="131" type="curve" smooth="yes"/>
      <point x="261" y="55"/>
      <point x="296" y="-10"/>
      <point x="350" y="-10" type="curve" smooth="yes"/>
      <point x="415" y="-10"/>
      <point x="461" y="76"/>
      <point x="461" y="187" type="curve" smooth="yes"/>
      <point x="461" y="263"/>
      <point x="428" y="328"/>
    </contour>
    <contour>
      <point x="374" y="312" type="curve" smooth="yes"/>
      <point x="409" y="312"/>
      <point x="429" y="268"/>
      <point x="429" y="188" type="curve" smooth="yes"/>
      <point x="429" y="94"/>
      <point x="400" y="6"/>
      <point x="349" y="6" type="curve" smooth="yes"/>
      <point x="315" y="6"/>
      <point x="294" y="48"/>
      <point x="294" y="130" type="curve" smooth="yes"/>
      <point x="294" y="224"/>
      <point x="323" y="312"/>
    </contour>
    <component base="fraction" xOffset="108"/>
  </outline>
</glyph>
<glyph name="quotesingle" format="2">
  <advance width="119"/>
  <unicode hex="0027"/>
  <outline>
    <contour>
      <point x="112" y="710" type="line"/>
      <point x="106" y="653"/>
      <point x="89" y="621"/>
      <point x="78" y="535" type="curve"/>
      <point x="64" y="535" type="line"/>
      <point x="75" y="621"/>
      <point x="67" y="652"/>
      <point x="73" y="710" type="curve"/>
    </contour>
  </outline>
</glyph>
<glyph name="asterisk" format="2">
  <advance width="219"/>
  <unicode hex="002A"/>
  <outline>
    <contour>
      <point x="53" y="627" type="curve"/>
      <point x="70" y="659" type="line"/>
      <point x="92" y="639"/>
      <point x="111" y="606"/>
      <point x="137" y="582" type="curve"/>
      <point x="131" y="571" type="line"/>
      <point x="105" y="593"/>
      <point x="75" y="608"/>
    </contour>
    <contour>
      <point x="50" y="494" type="curve"/>
      <point x="41" y="526" type="line"/>
      <point x="67" y="546"/>
      <point x="100" y="561"/>
      <point x="132" y="582" type="curve"/>
      <point x="135" y="571" type="line"/>
      <point x="104" y="548"/>
      <point x="77" y="515"/>
    </contour>
    <contour>
      <point x="131" y="443" type="curve"/>
      <point x="104" y="443" type="line"/>
      <point x="109" y="484"/>
      <point x="123" y="531"/>
      <point x="129" y="577" type="curve"/>
      <point x="138" y="577" type="line"/>
      <point x="133" y="531"/>
      <point x="136" y="484"/>
    </contour>
    <contour>
      <point x="137" y="710" type="curve"/>
      <point x="164" y="710" type="line"/>
      <point x="159" y="670"/>
      <point x="145" y="622"/>
      <point x="138" y="577" type="curve"/>
      <point x="130" y="577" type="line"/>
      <point x="134" y="622"/>
      <point x="131" y="670"/>
    </contour>
    <contour>
      <point x="197" y="494" type="line"/>
      <point x="175" y="515"/>
      <point x="156" y="548"/>
      <point x="131" y="571" type="curve"/>
      <point x="137" y="582" type="line"/>
      <point x="163" y="560"/>
      <point x="192" y="546"/>
      <point x="215" y="526" type="curve"/>
    </contour>
    <contour>
      <point x="227" y="627" type="line"/>
      <point x="200" y="608"/>
      <point x="168" y="593"/>
      <point x="135" y="571" type="curve"/>
      <point x="132" y="582" type="line"/>
      <point x="164" y="606"/>
      <point x="190" y="639"/>
      <point x="218" y="659" type="curve"/>
    </contour>
  </outline>
</glyph>
<glyph name="comma" format="2">
  <advance width="133"/>
  <unicode hex="002C"/>
  <outline>
    <contour>
      <point x="47" y="-89" type="line"/>
      <point x="72" y="-65"/>
      <point x="96" y="-24"/>
      <point x="96" y="16" type="curve" smooth="yes"/>
      <point x="96" y="46"/>
      <point x="83" y="62"/>
      <point x="67" y="62" type="curve" smooth="yes"/>
      <point x="51" y="62"/>
      <point x="40" y="48"/>
      <point x="40" y="27" type="curve" smooth="yes"/>
      <point x="40" y="5"/>
      <point x="51" y="-7"/>
      <point x="65" y="-7" type="curve" smooth="yes"/>
      <point x="76" y="-7"/>
      <point x="84" y="1"/>
      <point x="86" y="15" type="curve"/>
      <point x="83" y="14"/>
      <point x="82" y="11"/>
      <point x="81" y="8" type="curve"/>
      <point x="75" y="-25"/>
      <point x="60" y="-50"/>
      <point x="31" y="-73" type="curve"/>
    </contour>
  </outline>
</glyph>
<glyph name="hyphen" format="2">
  <advance width="256"/>
  <unicode hex="002D"/>
  <outline>
    <contour>
      <point x="44" y="328" type="line"/>
      <point x="40" y="292" type="line"/>
      <point x="209" y="292" type="line"/>
      <point x="214" y="328" type="line"/>
    </contour>
  </outline>
</glyph>
<glyph name="five" format="2">
  <advance width="384"/>
  <unicode hex="0035"/>
  <outline>
    <contour>
      <point x="166" y="-90" type="curve" smooth="yes"/>
      <point x="274" y="-90"/>
      <point x="343" y="23"/>
      <point x="343" y="165" type="curve" smooth="yes"/>
      <point x="343" y="279"/>
      <point x="292" y="366"/>
      <point x="206" y="366" type="curve" smooth="yes"/>
      <point x="160" y="366"/>
      <point x="114" y="339"/>
      <point x="77" y="265" type="curve"/>
      <point x="82" y="266" type="line"/>
      <point x="122" y="599" type="line"/>
      <point x="112" y="567" type="line"/>
      <point x="345" y="567" type="line"/>
      <point x="356" y="609" type="line"/>
      <point x="109" y="609" type="line"/>
      <point x="64" y="240" type="line"/>
      <point x="77" y="240" type="line"/>
      <point x="110" y="308"/>
      <point x="148" y="348"/>
      <point x="204" y="348" type="curve" smooth="yes"/>
      <point x="271" y="348"/>
      <point x="306" y="275"/>
      <point x="306" y="165" type="curve" smooth="yes"/>
      <point x="306" y="29"/>
      <point x="257" y="-72"/>
      <point x="166" y="-72" type="curve" smooth="yes"/>
      <point x="86" y="-72"/>
      <point x="40" y="-4"/>
      <point x="22" y="76" type="curve"/>
      <point x="11" y="65" type="line"/>
      <point x="29" y="-19"/>
      <point x="81" y="-90"/>
    </contour>
  </outline>
</glyph>
<glyph name="nine" format="2">
  <advance width="384"/>
  <unicode hex="0039"/>
  <outline>
    <contour>
      <point x="200" y="619" type="curve" smooth="yes"/>
      <point x="295" y="619"/>
      <point x="355" y="519"/>
      <point x="355" y="373" type="curve" smooth="yes"/>
      <point x="355" y="173"/>
      <point x="253" y="-85"/>
      <point x="23" y="-93" type="curve"/>
      <point x="22" y="-76" type="line"/>
      <point x="197" y="-69"/>
      <point x="296" y="101"/>
      <point x="314" y="306" type="curve" smooth="yes"/>
      <point x="316" y="331"/>
      <point x="318" y="355"/>
      <point x="318" y="380" type="curve" smooth="yes"/>
      <point x="318" y="520"/>
      <point x="271" y="601"/>
      <point x="200" y="601" type="curve" smooth="yes"/>
      <point x="133" y="601"/>
      <point x="90" y="531"/>
      <point x="77" y="439" type="curve" smooth="yes"/>
      <point x="75" y="422"/>
      <point x="74" y="403"/>
      <point x="74" y="384" type="curve" smooth="yes"/>
      <point x="74" y="270"/>
      <point x="117" y="195"/>
      <point x="179" y="195" type="curve" smooth="yes"/>
      <point x="238" y="195"/>
      <point x="289" y="247"/>
      <point x="323" y="345" type="curve"/>
      <point x="328" y="325" type="line"/>
      <point x="290" y="218"/>
      <point x="234" y="177"/>
      <point x="177" y="177" type="curve" smooth="yes"/>
      <point x="98" y="177"/>
      <point x="36" y="259"/>
      <point x="36" y="384" type="curve" smooth="yes"/>
      <point x="36" y="498"/>
      <point x="96" y="619"/>
    </contour>
  </outline>
</glyph>
<glyph name="C" format="2">
  <advance width="462"/>
  <unicode hex="0043"/>
  <anchor x="245" y="741" name="top"/>
  <anchor x="245" y="0" name="bottom"/>
  <outline>
    <contour>
      <point x="271" y="701" type="curve" smooth="yes"/>
      <point x="362" y="701"/>
      <point x="408" y="617"/>
      <point x="422" y="520" type="curve"/>
      <point x="433" y="520" type="line"/>
      <point x="457" y="710" type="line"/>
      <point x="440" y="710" type="line"/>
      <point x="418" y="573" type="line"/>
      <point x="423" y="578" type="line"/>
      <point x="407" y="644"/>
      <point x="357" y="720"/>
      <point x="271" y="720" type="curve" smooth="yes"/>
      <point x="130" y="720"/>
      <point x="27" y="540"/>
      <point x="27" y="319" type="curve" smooth="yes"/>
      <point x="27" y="131"/>
      <point x="110" y="-10"/>
      <point x="231" y="-10" type="curve" smooth="yes"/>
      <point x="330" y="-10"/>
      <point x="392" y="71"/>
      <point x="427" y="202" type="curve"/>
      <point x="414" y="213" type="line"/>
      <point x="384" y="92"/>
      <point x="330" y="10"/>
      <point x="232" y="10" type="curve" smooth="yes"/>
      <point x="128" y="10"/>
      <point x="65" y="137"/>
      <point x="65" y="315" type="curve" smooth="yes"/>
      <point x="65" y="534"/>
      <point x="150" y="701"/>
    </contour>
  </outline>
</glyph>
<glyph name="E" format="2">
  <advance width="398"/>
  <unicode hex="0045"/>
  <anchor x="259" y="741" name="top"/>
  <anchor x="317" y="0" name="right"/>
  <anchor x="259" y="0" name="bottom"/>
  <outline>
    <contour>
      <point x="344" y="178" type="line"/>
      <point x="330" y="178" type="line"/>
      <point x="306" y="55" type="line" smooth="yes"/>
      <point x="299" y="24"/>
      <point x="278" y="18"/>
      <point x="216" y="18" type="curve" smooth="yes"/>
      <point x="82" y="18" type="line"/>
      <point x="163" y="692" type="line"/>
      <point x="289" y="692" type="line" smooth="yes"/>
      <point x="343" y="692"/>
      <point x="359" y="686"/>
      <point x="357" y="658" type="curve" smooth="yes"/>
      <point x="353" y="557" type="line"/>
      <point x="366" y="557" type="line"/>
      <point x="385" y="710" type="line"/>
      <point x="71" y="710" type="line"/>
      <point x="69" y="695" type="line"/>
      <point x="76" y="695" type="line" smooth="yes"/>
      <point x="105" y="695"/>
      <point x="128" y="689"/>
      <point x="124" y="667" type="curve" smooth="yes"/>
      <point x="49" y="42" type="line" smooth="yes"/>
      <point x="47" y="21"/>
      <point x="23" y="15"/>
      <point x="-6" y="15" type="curve" smooth="yes"/>
      <point x="-12" y="15" type="line"/>
      <point x="-15" y="0" type="line"/>
      <point x="322" y="0" type="line"/>
    </contour>
    <contour>
      <point x="113" y="372" type="curve"/>
      <point x="110" y="356" type="line"/>
      <point x="203" y="354"/>
      <point x="247" y="354"/>
      <point x="288" y="346" type="curve"/>
      <point x="292" y="383" type="line"/>
      <point x="249" y="375"/>
      <point x="206" y="374"/>
    </contour>
  </outline>
</glyph>
<glyph name="M" format="2">
  <advance width="590"/>
  <unicode hex="004D"/>
  <anchor x="284" y="0" name="bottom"/>
  <outline>
    <contour>
      <point x="-14" y="0" type="line"/>
      <point x="126" y="0" type="line"/>
      <point x="128" y="15" type="line"/>
      <point x="118" y="15" type="line" smooth="yes"/>
      <point x="91" y="15"/>
      <point x="64" y="25"/>
      <point x="65" y="34" type="curve" smooth="yes"/>
      <point x="146" y="708" type="line"/>
      <point x="141" y="701" type="line"/>
      <point x="232" y="-2" type="line"/>
      <point x="255" y="-2" type="line"/>
      <point x="514" y="700" type="line"/>
      <point x="511" y="707" type="line"/>
      <point x="429" y="25" type="line" smooth="yes"/>
      <point x="428" y="18"/>
      <point x="400" y="15"/>
      <point x="375" y="15" type="curve" smooth="yes"/>
      <point x="370" y="15" type="line"/>
      <point x="368" y="0" type="line"/>
      <point x="520" y="0" type="line"/>
      <point x="522" y="15" type="line"/>
      <point x="515" y="15" type="line" smooth="yes"/>
      <point x="486" y="15"/>
      <point x="464" y="21"/>
      <point x="466" y="43" type="curve" smooth="yes"/>
      <point x="541" y="667" type="line" smooth="yes"/>
      <point x="545" y="689"/>
      <point x="567" y="695"/>
      <point x="596" y="695" type="curve" smooth="yes"/>
      <point x="604" y="695" type="line"/>
      <point x="606" y="710" type="line"/>
      <point x="501" y="710" type="line"/>
      <point x="253" y="36" type="line"/>
      <point x="259" y="36" type="line"/>
      <point x="175" y="710" type="line"/>
      <point x="72" y="710" type="line"/>
      <point x="70" y="695" type="line"/>
      <point x="77" y="695" type="line" smooth="yes"/>
      <point x="106" y="695"/>
      <point x="128" y="689"/>
      <point x="125" y="667" type="curve" smooth="yes"/>
      <point x="52" y="53" type="line" smooth="yes"/>
      <point x="49" y="26"/>
      <point x="24" y="15"/>
      <point x="-4" y="15" type="curve" smooth="yes"/>
      <point x="-12" y="15" type="line"/>
    </contour>
  </outline>
</glyph>
<glyph name="O" format="2">
  <advance width="502"/>
  <unicode hex="004F"/>
  <anchor x="250" y="741" name="top"/>
  <anchor x="250" y="0" name="bottom"/>
  <outline>
    <contour>
      <point x="482" y="389" type="curve" smooth="yes"/>
      <point x="482" y="567"/>
      <point x="403" y="720"/>
      <point x="274" y="720" type="curve" smooth="yes"/>
      <point x="126" y="720"/>
      <point x="27" y="525"/>
      <point x="27" y="321" type="curve" smooth="yes"/>
      <point x="27" y="146"/>
      <point x="105" y="-10"/>
      <point x="233" y="-10" type="curve" smooth="yes"/>
      <point x="381" y="-10"/>
      <point x="482" y="185"/>
    </contour>
    <contour>
      <point x="233" y="9" type="curve" smooth="yes"/>
      <point x="121" y="9"/>
      <point x="65" y="152"/>
      <point x="65" y="317" type="curve" smooth="yes"/>
      <point x="65" y="346"/>
      <point x="66" y="375"/>
      <point x="69" y="404" type="curve" smooth="yes"/>
      <point x="89" y="564"/>
      <point x="162" y="701"/>
      <point x="274" y="701" type="curve" smooth="yes"/>
      <point x="386" y="701"/>
      <point x="444" y="560"/>
      <point x="444" y="393" type="curve" smooth="yes"/>
      <point x="444" y="363"/>
      <point x="441" y="334"/>
      <point x="438" y="304" type="curve" smooth="yes"/>
      <point x="418" y="145"/>
      <point x="346" y="9"/>
    </contour>
  </outline>
</glyph>
<glyph name="W" format="2">
  <advance width="644"/>
  <unicode hex="0057"/>
  <anchor x="314" y="741" name="top"/>
  <outline>
    <contour>
      <point x="50" y="710" type="line"/>
      <point x="47" y="695" type="line"/>
      <point x="51" y="695" type="line" smooth="yes"/>
      <point x="73" y="695"/>
      <point x="88" y="692"/>
      <point x="90" y="667" type="curve" smooth="yes"/>
      <point x="131" y="0" type="line"/>
      <point x="161" y="0" type="line"/>
      <point x="361" y="660" type="line"/>
      <point x="354" y="661" type="line"/>
      <point x="405" y="0" type="line"/>
      <point x="435" y="0" type="line"/>
      <point x="625" y="654" type="line" smooth="yes"/>
      <point x="636" y="686"/>
      <point x="656" y="695"/>
      <point x="676" y="695" type="curve" smooth="yes"/>
      <point x="680" y="695" type="line"/>
      <point x="682" y="710" type="line"/>
      <point x="556" y="710" type="line"/>
      <point x="554" y="695" type="line"/>
      <point x="567" y="695" type="line" smooth="yes"/>
      <point x="594" y="695"/>
      <point x="617" y="685"/>
      <point x="615" y="673" type="curve"/>
      <point x="426" y="21" type="line"/>
      <point x="437" y="32" type="line"/>
      <point x="384" y="710" type="line"/>
      <point x="361" y="710" type="line"/>
      <point x="152" y="23" type="line"/>
      <point x="163" y="23" type="line"/>
      <point x="124" y="685" type="line"/>
      <point x="125" y="692"/>
      <point x="154" y="695"/>
      <point x="179" y="695" type="curve" smooth="yes"/>
      <point x="191" y="695" type="line"/>
      <point x="194" y="710" type="line"/>
    </contour>
  </outline>
</glyph>
<glyph name="X" format="2">
  <advance width="452"/>
  <unicode hex="0058"/>
  <outline>
    <contour>
      <point x="66" y="695" type="line"/>
      <point x="71" y="695" type="line" smooth="yes"/>
      <point x="94" y="695"/>
      <point x="104" y="693"/>
      <point x="112" y="669" type="curve" smooth="yes"/>
      <point x="213" y="357" type="line"/>
      <point x="215" y="353" type="line"/>
      <point x="319" y="28" type="line"/>
      <point x="319" y="20"/>
      <point x="290" y="15"/>
      <point x="267" y="15" type="curve" smooth="yes"/>
      <point x="256" y="15" type="line"/>
      <point x="253" y="0" type="line"/>
      <point x="401" y="0" type="line"/>
      <point x="404" y="15" type="line"/>
      <point x="397" y="15" type="line" smooth="yes"/>
      <point x="374" y="15"/>
      <point x="362" y="16"/>
      <point x="354" y="42" type="curve" smooth="yes"/>
      <point x="241" y="382" type="line"/>
      <point x="240" y="384" type="line"/>
      <point x="145" y="684" type="line"/>
      <point x="146" y="691"/>
      <point x="176" y="695"/>
      <point x="199" y="695" type="curve" smooth="yes"/>
      <point x="210" y="695" type="line"/>
      <point x="213" y="710" type="line"/>
      <point x="68" y="710" type="line"/>
    </contour>
    <contour>
      <point x="-33" y="0" type="line"/>
      <point x="101" y="0" type="line"/>
      <point x="103" y="15" type="line"/>
      <point x="93" y="15" type="line" smooth="yes"/>
      <point x="65" y="15"/>
      <point x="40" y="23"/>
      <point x="41" y="37" type="curve"/>
      <point x="222" y="356" type="line"/>
      <point x="217" y="380" type="line"/>
      <point x="37" y="62" type="line" smooth="yes"/>
      <point x="17" y="30"/>
      <point x="-3" y="15"/>
      <point x="-24" y="15" type="curve" smooth="yes"/>
      <point x="-30" y="15" type="line"/>
    </contour>
    <contour>
      <point x="236" y="361" type="line"/>
      <point x="405" y="651" type="line" smooth="yes"/>
      <point x="423" y="682"/>
      <point x="443" y="695"/>
      <point x="464" y="695" type="curve" smooth="yes"/>
      <point x="468" y="695" type="line"/>
      <point x="470" y="710" type="line"/>
      <point x="339" y="710" type="line"/>
      <point x="336" y="695" type="line"/>
      <point x="347" y="695" type="line" smooth="yes"/>
      <point x="378" y="695"/>
      <point x="399" y="685"/>
      <point x="398" y="674" type="curve"/>
      <point x="230" y="381" type="line"/>
    </contour>
  </outline>
</glyph>
<glyph name="Z" format="2">
  <advance width="399"/>
  <unicode hex="005A"/>
  <anchor x="217" y="741" name="top"/>
  <anchor x="217" y="0" name="bottom"/>
  <outline>
    <contour>
      <point x="13" y="18" type="line"/>
      <point x="25" y="7" type="line"/>
      <point x="403" y="689" type="line"/>
      <point x="406" y="710" type="line"/>
      <point x="85" y="710" type="line"/>
      <point x="66" y="557" type="line"/>
      <point x="80" y="557" type="line"/>
      <point x="98" y="652" type="line" smooth="yes"/>
      <point x="106" y="686"/>
      <point x="125" y="692"/>
      <point x="193" y="692" type="curve" smooth="yes"/>
      <point x="378" y="692" type="line"/>
      <point x="370" y="702" type="line"/>
      <point x="-7" y="22" type="line"/>
      <point x="-10" y="0" type="line"/>
      <point x="337" y="0" type="line"/>
      <point x="359" y="177" type="line"/>
      <point x="344" y="177" type="line"/>
      <point x="324" y="67" type="line" smooth="yes"/>
      <point x="316" y="24"/>
      <point x="297" y="18"/>
      <point x="228" y="18" type="curve" smooth="yes"/>
    </contour>
  </outline>
</glyph>
<glyph name="c" format="2">
  <advance width="329"/>
  <unicode hex="0063"/>
  <anchor x="176" y="518" name="top"/>
  <anchor x="185" y="0" name="bottom"/>
  <outline>
    <contour>
      <point x="216" y="528" type="curve" smooth="yes"/>
      <point x="105" y="528"/>
      <point x="28" y="386"/>
      <point x="28" y="223" type="curve" smooth="yes"/>
      <point x="28" y="82"/>
      <point x="87" y="-10"/>
      <point x="170" y="-10" type="curve" smooth="yes"/>
      <point x="233" y="-10"/>
      <point x="275" y="41"/>
      <point x="302" y="118" type="curve"/>
      <point x="291" y="128" type="line"/>
      <point x="271" y="65"/>
      <point x="233" y="8"/>
      <point x="172" y="8" type="curve" smooth="yes"/>
      <point x="105" y="8"/>
      <point x="65" y="92"/>
      <point x="65" y="221" type="curve" smooth="yes"/>
      <point x="65" y="375"/>
      <point x="124" y="511"/>
      <point x="216" y="511" type="curve" smooth="yes"/>
      <point x="257" y="511"/>
      <point x="286" y="486"/>
      <point x="299" y="453" type="curve"/>
      <point x="302" y="463"/>
      <point x="308" y="475"/>
      <point x="286" y="487" type="curve"/>
      <point x="275" y="392" type="line"/>
      <point x="311" y="392" type="line"/>
      <point x="321" y="470" type="line"/>
      <point x="313" y="483"/>
      <point x="279" y="528"/>
    </contour>
  </outline>
</glyph>
<glyph name="k" format="2">
  <advance width="341"/>
  <unicode hex="006B"/>
  <anchor x="164" y="0" name="bottom"/>
  <outline>
    <contour>
      <point x="229" y="109" type="line" smooth="yes"/>
      <point x="253" y="36"/>
      <point x="265" y="13"/>
      <point x="284" y="13" type="curve" smooth="yes"/>
      <point x="297" y="13"/>
      <point x="312" y="26"/>
      <point x="317" y="29" type="curve"/>
      <point x="314" y="12" type="line"/>
      <point x="307" y="3"/>
      <point x="292" y="-7"/>
      <point x="275" y="-7" type="curve" smooth="yes"/>
      <point x="241" y="-7"/>
      <point x="223" y="14"/>
      <point x="197" y="94" type="curve" smooth="yes"/>
      <point x="137" y="292" type="line"/>
      <point x="138" y="297" type="line"/>
      <point x="219" y="374"/>
      <point x="263" y="438"/>
      <point x="309" y="518" type="curve"/>
      <point x="344" y="518" type="line"/>
      <point x="344" y="513" type="line"/>
      <point x="287" y="429"/>
      <point x="227" y="364"/>
      <point x="153" y="295" type="curve"/>
      <point x="165" y="314" type="line"/>
    </contour>
    <contour>
      <point x="37" y="0" type="line"/>
      <point x="122" y="703" type="line" smooth="yes"/>
      <point x="124" y="723"/>
      <point x="115" y="728"/>
      <point x="89" y="733" type="curve" smooth="yes"/>
      <point x="73" y="735" type="line"/>
      <point x="74" y="750" type="line"/>
      <point x="164" y="750" type="line"/>
      <point x="71" y="0" type="line"/>
    </contour>
  </outline>
</glyph>
<glyph name="n" format="2">
  <advance width="379"/>
  <unicode hex="006E"/>
  <anchor x="184" y="518" name="top"/>
  <anchor x="190" y="0" name="bottom"/>
  <outline>
    <contour>
      <point x="37" y="0" type="line"/>
      <point x="94" y="471" type="line" smooth="yes"/>
      <point x="97" y="491"/>
      <point x="87" y="496"/>
      <point x="61" y="501" type="curve" smooth="yes"/>
      <point x="44" y="503" type="line"/>
      <point x="47" y="518" type="line"/>
      <point x="134" y="518" type="line"/>
      <point x="115" y="360" type="line"/>
      <point x="115" y="353" type="line"/>
      <point x="72" y="0" type="line"/>
    </contour>
    <contour>
      <point x="303" y="175" type="line" smooth="yes"/>
      <point x="297" y="131"/>
      <point x="291" y="83"/>
      <point x="291" y="57" type="curve" smooth="yes"/>
      <point x="291" y="25"/>
      <point x="299" y="13"/>
      <point x="319" y="13" type="curve" smooth="yes"/>
      <point x="334" y="13"/>
      <point x="351" y="23"/>
      <point x="357" y="27" type="curve"/>
      <point x="354" y="11" type="line"/>
      <point x="346" y="2"/>
      <point x="329" y="-7"/>
      <point x="311" y="-7" type="curve" smooth="yes"/>
      <point x="280" y="-7"/>
      <point x="258" y="13"/>
      <point x="258" y="62" type="curve" smooth="yes"/>
      <point x="258" y="91"/>
      <point x="263" y="136"/>
      <point x="270" y="194" type="curve" smooth="yes"/>
      <point x="290" y="329" type="line" smooth="yes"/>
      <point x="294" y="364"/>
      <point x="298" y="395"/>
      <point x="298" y="429" type="curve" smooth="yes"/>
      <point x="298" y="482"/>
      <point x="283" y="507"/>
      <point x="250" y="507" type="curve" smooth="yes"/>
      <point x="196" y="507"/>
      <point x="150" y="425"/>
      <point x="101" y="302" type="curve"/>
      <point x="94" y="316" type="line"/>
      <point x="142" y="445"/>
      <point x="194" y="528"/>
      <point x="257" y="528" type="curve" smooth="yes"/>
      <point x="305" y="528"/>
      <point x="332" y="486"/>
      <point x="332" y="426" type="curve" smooth="yes"/>
      <point x="332" y="394"/>
      <point x="328" y="360"/>
      <point x="324" y="326" type="curve" smooth="yes"/>
    </contour>
  </outline>
</glyph>
<glyph name="o" format="2">
  <advance width="367"/>
  <unicode hex="006F"/>
  <anchor x="181" y="518" name="top"/>
  <anchor x="273" y="0" name="right"/>
  <anchor x="181" y="0" name="bottom"/>
  <outline>
    <contour>
      <point x="27" y="222" type="curve" smooth="yes"/>
      <point x="27" y="92"/>
      <point x="84" y="-10"/>
      <point x="168" y="-10" type="curve" smooth="yes"/>
      <point x="274" y="-10"/>
      <point x="346" y="141"/>
      <point x="346" y="296" type="curve" smooth="yes"/>
      <point x="346" y="426"/>
      <point x="290" y="528"/>
      <point x="205" y="528" type="curve" smooth="yes"/>
      <point x="100" y="528"/>
      <point x="27" y="376"/>
    </contour>
    <contour>
      <point x="291" y="151" type="curve" smooth="yes"/>
      <point x="268" y="69"/>
      <point x="227" y="7"/>
      <point x="168" y="7" type="curve"/>
      <point x="102" y="7"/>
      <point x="64" y="94"/>
      <point x="64" y="218" type="curve" smooth="yes"/>
      <point x="64" y="269"/>
      <point x="70" y="322"/>
      <point x="82" y="367" type="curve" smooth="yes"/>
      <point x="105" y="449"/>
      <point x="146" y="511"/>
      <point x="205" y="511" type="curve"/>
      <point x="271" y="511"/>
      <point x="309" y="424"/>
      <point x="309" y="300" type="curve" smooth="yes"/>
      <point x="309" y="249"/>
      <point x="303" y="196"/>
    </contour>
  </outline>
</glyph>
<glyph name="p" format="2">
  <advance width="381"/>
  <unicode hex="0070"/>
  <outline>
    <contour>
      <point x="-44" y="-223" type="line"/>
      <point x="110" y="-223" type="line"/>
      <point x="112" y="-208" type="line"/>
      <point x="98" y="-208" type="line" smooth="yes"/>
      <point x="83" y="-208"/>
      <point x="47" y="-205"/>
      <point x="48" y="-197" type="curve" smooth="yes"/>
      <point x="114" y="346" type="line"/>
      <point x="113" y="351" type="line"/>
      <point x="133" y="518" type="line"/>
      <point x="45" y="518" type="line"/>
      <point x="43" y="503" type="line"/>
      <point x="60" y="501" type="line" smooth="yes"/>
      <point x="86" y="496"/>
      <point x="96" y="491"/>
      <point x="93" y="471" type="curve" smooth="yes"/>
      <point x="16" y="-183" type="line" smooth="yes"/>
      <point x="14" y="-203"/>
      <point x="-9" y="-208"/>
      <point x="-40" y="-208" type="curve"/>
      <point x="-41" y="-208" type="line"/>
    </contour>
    <contour>
      <point x="359" y="327" type="curve" smooth="yes"/>
      <point x="359" y="441"/>
      <point x="326" y="528"/>
      <point x="254" y="528" type="curve" smooth="yes"/>
      <point x="186" y="528"/>
      <point x="138" y="447"/>
      <point x="93" y="308" type="curve"/>
      <point x="99" y="290" type="line"/>
      <point x="143" y="422"/>
      <point x="188" y="510"/>
      <point x="249" y="510" type="curve" smooth="yes"/>
      <point x="301" y="510"/>
      <point x="322" y="433"/>
      <point x="322" y="329" type="curve" smooth="yes"/>
      <point x="322" y="163"/>
      <point x="268" y="7"/>
      <point x="172" y="7" type="curve" smooth="yes"/>
      <point x="124" y="7"/>
      <point x="87" y="48"/>
      <point x="69" y="93" type="curve"/>
      <point x="58" y="76" type="line"/>
      <point x="82" y="28"/>
      <point x="121" y="-10"/>
      <point x="172" y="-10" type="curve" smooth="yes"/>
      <point x="288" y="-10"/>
      <point x="359" y="153"/>
    </contour>
  </outline>
</glyph>
<glyph name="r" format="2">
  <advance width="237"/>
  <unicode hex="0072"/>
  <anchor x="122" y="518" name="top"/>
  <anchor x="77" y="0" name="bottom"/>
  <outline>
    <contour>
      <point x="37" y="0" type="line"/>
      <point x="72" y="0" type="line"/>
      <point x="115" y="356" type="line"/>
      <point x="115" y="362" type="line"/>
      <point x="134" y="518" type="line"/>
      <point x="47" y="518" type="line"/>
      <point x="44" y="503" type="line"/>
      <point x="61" y="501" type="line" smooth="yes"/>
      <point x="87" y="496"/>
      <point x="97" y="491"/>
      <point x="94" y="471" type="curve" smooth="yes"/>
    </contour>
    <contour>
      <point x="246" y="523" type="line"/>
      <point x="244" y="524"/>
      <point x="237" y="526"/>
      <point x="224" y="526" type="curve" smooth="yes"/>
      <point x="171" y="526"/>
      <point x="129" y="421"/>
      <point x="99" y="312" type="curve"/>
      <point x="102" y="292" type="line"/>
      <point x="146" y="443"/>
      <point x="171" y="481"/>
      <point x="213" y="481" type="curve" smooth="yes"/>
      <point x="228" y="481"/>
      <point x="236" y="476"/>
      <point x="241" y="474" type="curve"/>
    </contour>
  </outline>
</glyph>
<glyph name="s" format="2">
  <advance width="302"/>
  <unicode hex="0073"/>
  <anchor x="154" y="518" name="top"/>
  <anchor x="157" y="0" name="bottom"/>
  <outline>
    <contour>
      <point x="137" y="-10" type="curve" smooth="yes"/>
      <point x="218" y="-10"/>
      <point x="266" y="49"/>
      <point x="266" y="140" type="curve" smooth="yes"/>
      <point x="266" y="225"/>
      <point x="218" y="254"/>
      <point x="173" y="287" type="curve" smooth="yes"/>
      <point x="130" y="318"/>
      <point x="95" y="343"/>
      <point x="95" y="402" type="curve" smooth="yes"/>
      <point x="95" y="468"/>
      <point x="125" y="511"/>
      <point x="183" y="511" type="curve" smooth="yes"/>
      <point x="225" y="511"/>
      <point x="253" y="490"/>
      <point x="267" y="463" type="curve"/>
      <point x="268" y="473"/>
      <point x="263" y="483"/>
      <point x="252" y="494" type="curve"/>
      <point x="242" y="417" type="line"/>
      <point x="277" y="417" type="line"/>
      <point x="285" y="481" type="line"/>
      <point x="273" y="495"/>
      <point x="240" y="528"/>
      <point x="184" y="528" type="curve" smooth="yes"/>
      <point x="116" y="528"/>
      <point x="65" y="478"/>
      <point x="65" y="396" type="curve" smooth="yes"/>
      <point x="65" y="315"/>
      <point x="104" y="288"/>
      <point x="147" y="255" type="curve" smooth="yes"/>
      <point x="190" y="222"/>
      <point x="236" y="197"/>
      <point x="236" y="134" type="curve" smooth="yes"/>
      <point x="236" y="54"/>
      <point x="199" y="7"/>
      <point x="138" y="7" type="curve" smooth="yes"/>
      <point x="93" y="7"/>
      <point x="55" y="30"/>
      <point x="31" y="72" type="curve"/>
      <point x="31" y="63"/>
      <point x="37" y="48"/>
      <point x="44" y="35" type="curve"/>
      <point x="56" y="123" type="line"/>
      <point x="19" y="123" type="line"/>
      <point x="10" y="57" type="line"/>
      <point x="30" y="26"/>
      <point x="77" y="-10"/>
    </contour>
  </outline>
</glyph>
<glyph name="t" format="2">
  <advance width="218"/>
  <unicode hex="0074"/>
  <anchor x="72" y="675" name="top"/>
  <anchor x="188" y="681" name="right"/>
  <anchor x="147" y="0" name="bottom"/>
  <outline>
    <contour>
      <point x="126" y="-10" type="curve" smooth="yes"/>
      <point x="147" y="-10"/>
      <point x="164" y="-3"/>
      <point x="176" y="6" type="curve"/>
      <point x="179" y="25" type="line"/>
      <point x="165" y="15"/>
      <point x="151" y="9"/>
      <point x="130" y="9" type="curve" smooth="yes"/>
      <point x="105" y="9"/>
      <point x="87" y="22"/>
      <point x="87" y="83" type="curve" smooth="yes"/>
      <point x="87" y="106"/>
      <point x="89" y="130"/>
      <point x="93" y="161" type="curve" smooth="yes"/>
      <point x="150" y="631" type="line"/>
      <point x="130" y="631" type="line"/>
      <point x="119" y="574" type="line" smooth="yes"/>
      <point x="109" y="524"/>
      <point x="84" y="516"/>
      <point x="52" y="516" type="curve" smooth="yes"/>
      <point x="46" y="516" type="line"/>
      <point x="45" y="501" type="line"/>
      <point x="220" y="501" type="line"/>
      <point x="223" y="518" type="line"/>
      <point x="116" y="518" type="line"/>
      <point x="100" y="509" type="line"/>
      <point x="58" y="163" type="line" smooth="yes"/>
      <point x="55" y="133"/>
      <point x="53" y="108"/>
      <point x="53" y="85" type="curve" smooth="yes"/>
      <point x="53" y="15"/>
      <point x="86" y="-10"/>
    </contour>
  </outline>
</glyph>
<glyph name="u" format="2">
  <advance width="376"/>
  <unicode hex="0075"/>
  <anchor x="165" y="518" name="top"/>
  <anchor x="309" y="0" name="right"/>
  <anchor x="163" y="0" name="bottom"/>
  <outline>
    <contour>
      <point x="93" y="192" type="curve" smooth="yes"/>
      <point x="135" y="518" type="line"/>
      <point x="46" y="518" type="line"/>
      <point x="44" y="503" type="line"/>
      <point x="60" y="501" type="line" smooth="yes"/>
      <point x="86" y="496"/>
      <point x="96" y="491"/>
      <point x="93" y="471" type="curve" smooth="yes"/>
      <point x="58" y="195" type="line" smooth="yes"/>
      <point x="54" y="158"/>
      <point x="51" y="122"/>
      <point x="51" y="96" type="curve" smooth="yes"/>
      <point x="51" y="31"/>
      <point x="78" y="-10"/>
      <point x="125" y="-10" type="curve" smooth="yes"/>
      <point x="188" y="-10"/>
      <point x="237" y="73"/>
      <point x="285" y="206" type="curve"/>
      <point x="278" y="219" type="line"/>
      <point x="230" y="92"/>
      <point x="185" y="11"/>
      <point x="133" y="11" type="curve" smooth="yes"/>
      <point x="101" y="11"/>
      <point x="86" y="42"/>
      <point x="86" y="94" type="curve" smooth="yes"/>
      <point x="86" y="123"/>
      <point x="89" y="155"/>
    </contour>
    <contour>
      <point x="307" y="-7" type="curve" smooth="yes"/>
      <point x="324" y="-7"/>
      <point x="343" y="2"/>
      <point x="351" y="11" type="curve"/>
      <point x="353" y="27" type="line"/>
      <point x="347" y="24"/>
      <point x="332" y="13"/>
      <point x="315" y="13" type="curve" smooth="yes"/>
      <point x="296" y="13"/>
      <point x="288" y="26"/>
      <point x="288" y="57" type="curve" smooth="yes"/>
      <point x="288" y="77"/>
      <point x="291" y="110"/>
      <point x="294" y="133" type="curve" smooth="yes"/>
      <point x="341" y="518" type="line"/>
      <point x="306" y="518" type="line"/>
      <point x="265" y="168" type="line"/>
      <point x="264" y="165" type="line"/>
      <point x="259" y="132"/>
      <point x="254" y="87"/>
      <point x="254" y="62" type="curve" smooth="yes"/>
      <point x="254" y="13"/>
      <point x="276" y="-7"/>
    </contour>
  </outline>
</glyph>
<glyph name="sterling" format="2">
  <advance width="384"/>
  <unicode hex="00A3"/>
  <outline>
    <contour>
      <point x="252" y="703" type="curve" smooth="yes"/>
      <point x="301" y="703"/>
      <point x="336" y="677"/>
      <point x="349" y="649" type="curve"/>
      <point x="350" y="656"/>
      <point x="343" y="669"/>
      <point x="334" y="678" type="curve"/>
      <point x="323" y="594" type="line"/>
      <point x="362" y="594" type="line"/>
      <point x="372" y="665" type="line"/>
      <point x="354" y="688"/>
      <point x="314" y="720"/>
      <point x="252" y="720" type="curve" smooth="yes"/>
      <point x="147" y="720"/>
      <point x="96" y="625"/>
      <point x="96" y="506" type="curve" smooth="yes"/>
      <point x="96" y="405"/>
      <point x="122" y="310"/>
      <point x="122" y="225" type="curve" smooth="yes"/>
      <point x="122" y="128"/>
      <point x="100" y="29"/>
      <point x="-9" y="15" type="curve"/>
      <point x="-11" y="-2" type="line"/>
      <point x="112" y="11"/>
      <point x="150" y="117"/>
      <point x="150" y="233" type="curve" smooth="yes"/>
      <point x="150" y="332"/>
      <point x="134" y="418"/>
      <point x="134" y="503" type="curve" smooth="yes"/>
      <point x="134" y="643"/>
      <point x="176" y="703"/>
    </contour>
    <contour>
      <point x="30" y="350" type="line"/>
      <point x="27" y="332" type="line"/>
      <point x="280" y="332" type="line"/>
      <point x="283" y="350" type="line"/>
    </contour>
    <contour>
      <point x="255" y="-10" type="curve" smooth="yes"/>
      <point x="305" y="-10"/>
      <point x="326" y="41"/>
      <point x="350" y="142" type="curve"/>
      <point x="340" y="150" type="line"/>
      <point x="316" y="73"/>
      <point x="299" y="37"/>
      <point x="256" y="37" type="curve" smooth="yes"/>
      <point x="222" y="37"/>
      <point x="181" y="49"/>
      <point x="120" y="121" type="curve"/>
      <point x="113" y="108" type="line"/>
      <point x="172" y="34"/>
      <point x="211" y="-10"/>
    </contour>
  </outline>
</glyph>
<glyph name="currency" format="2">
  <advance width="384"/>
  <unicode hex="00A4"/>
  <outline>
    <contour>
      <point x="28" y="142" type="line"/>
      <point x="107" y="241" type="line"/>
      <point x="95" y="255" type="line"/>
      <point x="18" y="157" type="line"/>
    </contour>
    <contour>
      <point x="60" y="597" type="line"/>
      <point x="111" y="513" type="line"/>
      <point x="124" y="524" type="line"/>
      <point x="72" y="610" type="line"/>
    </contour>
    <contour>
      <point x="190" y="199" type="curve" smooth="yes"/>
      <point x="128" y="199"/>
      <point x="78" y="264"/>
      <point x="78" y="367" type="curve" smooth="yes"/>
      <point x="78" y="474"/>
      <point x="130" y="553"/>
      <point x="204" y="553" type="curve" smooth="yes"/>
      <point x="265" y="553"/>
      <point x="316" y="489"/>
      <point x="316" y="385" type="curve" smooth="yes"/>
      <point x="316" y="282"/>
      <point x="265" y="199"/>
    </contour>
    <contour>
      <point x="190" y="181" type="curve"/>
      <point x="271" y="181"/>
      <point x="333" y="273"/>
      <point x="333" y="385" type="curve" smooth="yes"/>
      <point x="333" y="497"/>
      <point x="277" y="572"/>
      <point x="204" y="572" type="curve" smooth="yes"/>
      <point x="122" y="572"/>
      <point x="61" y="479"/>
      <point x="61" y="367" type="curve" smooth="yes"/>
      <point x="61" y="255"/>
      <point x="116" y="181"/>
    </contour>
    <contour>
      <point x="324" y="142" type="line"/>
      <point x="335" y="155" type="line"/>
      <point x="286" y="238" type="line"/>
      <point x="274" y="226" type="line"/>
    </contour>
    <contour>
      <point x="376" y="595" type="line"/>
      <point x="367" y="610" type="line"/>
      <point x="288" y="510" type="line"/>
      <point x="298" y="496" type="line"/>
    </contour>
  </outline>
</glyph>
<glyph name="section" format="2">
  <advance width="417"/>
  <unicode hex="00A7"/>
  <outline>
    <contour>
      <point x="158" y="-236" type="curve" smooth="yes"/>
      <point x="243" y="-236"/>
      <point x="306" y="-169"/>
      <point x="306" y="-54" type="curve" smooth="yes"/>
      <point x="306" y="31"/>
      <point x="248" y="78"/>
      <point x="185" y="136" type="curve" smooth="yes"/>
      <point x="128" y="190"/>
      <point x="72" y="233"/>
      <point x="72" y="304" type="curve" smooth="yes"/>
      <point x="72" y="395"/>
      <point x="130" y="427"/>
      <point x="207" y="413" type="curve"/>
      <point x="203" y="428" type="line"/>
      <point x="128" y="443"/>
      <point x="44" y="405"/>
      <point x="44" y="293" type="curve" smooth="yes"/>
      <point x="44" y="211"/>
      <point x="96" y="166"/>
      <point x="156" y="110" type="curve" smooth="yes"/>
      <point x="219" y="50"/>
      <point x="278" y="10"/>
      <point x="278" y="-78" type="curve" smooth="yes"/>
      <point x="278" y="-166"/>
      <point x="232" y="-219"/>
      <point x="158" y="-219" type="curve" smooth="yes"/>
      <point x="99" y="-219"/>
      <point x="48" y="-191"/>
      <point x="25" y="-145" type="curve"/>
      <point x="23" y="-154"/>
      <point x="26" y="-168"/>
      <point x="42" y="-196" type="curve"/>
      <point x="58" y="-77" type="line"/>
      <point x="21" y="-77" type="line"/>
      <point x="9" y="-167" type="line"/>
      <point x="30" y="-197"/>
      <point x="83" y="-236"/>
    </contour>
    <contour>
      <point x="242" y="51" type="line"/>
      <point x="330" y="53"/>
      <point x="379" y="112"/>
      <point x="379" y="197" type="curve" smooth="yes"/>
      <point x="379" y="282"/>
      <point x="330" y="327"/>
      <point x="254" y="399" type="curve" smooth="yes"/>
      <point x="200" y="450"/>
      <point x="146" y="492"/>
      <point x="146" y="571" type="curve" smooth="yes"/>
      <point x="146" y="643"/>
      <point x="183" y="703"/>
      <point x="261" y="703" type="curve" smooth="yes"/>
      <point x="318" y="703"/>
      <point x="354" y="675"/>
      <point x="371" y="631" type="curve"/>
      <point x="374" y="648"/>
      <point x="365" y="671"/>
      <point x="350" y="678" type="curve"/>
      <point x="338" y="587" type="line"/>
      <point x="376" y="587" type="line"/>
      <point x="385" y="660" type="line"/>
      <point x="367" y="689"/>
      <point x="325" y="720"/>
      <point x="261" y="720" type="curve" smooth="yes"/>
      <point x="176" y="720"/>
      <point x="118" y="658"/>
      <point x="118" y="559" type="curve" smooth="yes"/>
      <point x="118" y="475"/>
      <point x="172" y="422"/>
      <point x="229" y="369" type="curve" smooth="yes"/>
      <point x="292" y="311"/>
      <point x="351" y="258"/>
      <point x="351" y="192" type="curve" smooth="yes"/>
      <point x="351" y="117"/>
      <point x="321" y="69"/>
      <point x="239" y="66" type="curve"/>
    </contour>
  </outline>
</glyph>
<glyph name="logicalnot" format="2">
  <advance width="384"/>
  <unicode hex="00AC"/>
  <outline>
    <contour>
      <point x="308" y="356" type="line"/>
      <point x="286" y="175" type="line"/>
      <point x="301" y="175" type="line"/>
      <point x="323" y="362" type="line"/>
      <point x="76" y="362" type="line"/>
      <point x="74" y="345" type="line"/>
      <point x="312" y="345" type="line"/>
    </contour>
  </outline>
</glyph>
<glyph name="acute" format="2">
  <advance width="343"/>
  <unicode hex="00B4"/>
  <anchor x="131" y="527" name="_top"/>
  <outline>
    <contour>
      <point x="187" y="719" type="curve" smooth="yes"/>
      <point x="136" y="592" type="line"/>
      <point x="135" y="585" type="line"/>
      <point x="145" y="585" type="line"/>
      <point x="214" y="687" type="line" smooth="yes"/>
      <point x="227" y="705"/>
      <point x="239" y="721"/>
      <point x="239" y="739" type="curve" smooth="yes"/>
      <point x="239" y="755"/>
      <point x="232" y="765"/>
      <point x="221" y="765" type="curve" smooth="yes"/>
      <point x="206" y="765"/>
      <point x="199" y="748"/>
    </contour>
  </outline>
</glyph>
<glyph name="ibreve" format="2">
  <advance width="168"/>
  <unicode hex="012D"/>
  <outline>
    <contour>
      <point x="108" y="604" type="curve" smooth="yes"/>
      <point x="63" y="604"/>
      <point x="37" y="645"/>
      <point x="37" y="723" type="curve" smooth="yes"/>
      <point x="37" y="727"/>
      <point x="37" y="735"/>
      <point x="38" y="742" type="curve"/>
      <point x="51" y="742" type="line"/>
      <point x="52" y="682"/>
      <point x="64" y="644"/>
      <point x="111" y="644" type="curve" smooth="yes"/>
      <point x="148" y="644"/>
      <point x="170" y="673"/>
      <point x="182" y="742" type="curve"/>
      <point x="195" y="742" type="line"/>
      <point x="185" y="641"/>
      <point x="152" y="604"/>
    </contour>
    <component base="dotlessi"/>
  </outline>
</glyph>
<glyph name="Eng" format="2">
  <advance width="491"/>
  <unicode hex="014A"/>
  <outline>
    <contour>
      <point x="241" y="-205" type="curve" smooth="yes"/>
      <point x="205" y="-205"/>
      <point x="179" y="-192"/>
      <point x="163" y="-179" type="curve"/>
      <point x="165" y="-159" type="line"/>
      <point x="184" y="-175"/>
      <point x="208" y="-187"/>
      <point x="242" y="-187" type="curve" smooth="yes"/>
      <point x="292" y="-187"/>
      <point x="329" y="-145"/>
      <point x="341" y="-48" type="curve" smooth="yes"/>
      <point x="349" y="16" type="line"/>
      <point x="349" y="-27" type="line"/>
      <point x="134" y="701" type="line"/>
      <point x="145" y="705" type="line"/>
      <point x="64" y="34" type="line" smooth="yes"/>
      <point x="64" y="25"/>
      <point x="90" y="15"/>
      <point x="117" y="15" type="curve" smooth="yes"/>
      <point x="129" y="15" type="line"/>
      <point x="126" y="0" type="line"/>
      <point x="-15" y="0" type="line"/>
      <point x="-12" y="15" type="line"/>
      <point x="-5" y="15" type="line" smooth="yes"/>
      <point x="24" y="15"/>
      <point x="48" y="27"/>
      <point x="52" y="54" type="curve" smooth="yes"/>
      <point x="125" y="667" type="line" smooth="yes"/>
      <point x="128" y="689"/>
      <point x="105" y="695"/>
      <point x="76" y="695" type="curve" smooth="yes"/>
      <point x="69" y="695" type="line"/>
      <point x="71" y="710" type="line"/>
      <point x="168" y="710" type="line"/>
      <point x="363" y="42" type="line"/>
      <point x="351" y="35" type="line"/>
      <point x="428" y="676" type="line"/>
      <point x="429" y="685"/>
      <point x="402" y="695"/>
      <point x="375" y="695" type="curve" smooth="yes"/>
      <point x="364" y="695" type="line"/>
      <point x="366" y="710" type="line"/>
      <point x="507" y="710" type="line"/>
      <point x="505" y="695" type="line"/>
      <point x="497" y="695" type="line" smooth="yes"/>
      <point x="468" y="695"/>
      <point x="444" y="683"/>
      <point x="441" y="657" type="curve" smooth="yes"/>
      <point x="357" y="-49" type="line" smooth="yes"/>
      <point x="344" y="-149"/>
      <point x="305" y="-205"/>
    </contour>
  </outline>
</glyph>
<glyph name="Ohorn" format="2">
  <advance width="503"/>
  <unicode hex="01A0"/>
  <anchor x="234" y="742" name="top"/>
  <outline>
    <contour>
      <point x="233" y="9" type="curve" smooth="yes"/>
      <point x="121" y="9"/>
      <point x="65" y="152"/>
      <point x="65" y="317" type="curve" smooth="yes"/>
      <point x="65" y="346"/>
      <point x="66" y="375"/>
      <point x="69" y="404" type="curve" smooth="yes"/>
      <point x="89" y="564"/>
      <point x="162" y="701"/>
      <point x="274" y="701" type="curve" smooth="yes"/>
      <point x="386" y="701"/>
      <point x="444" y="560"/>
      <point x="444" y="393" type="curve" smooth="yes"/>
      <point x="444" y="363"/>
      <point x="441" y="334"/>
      <point x="438" y="304" type="curve" smooth="yes"/>
      <point x="418" y="145"/>
      <point x="346" y="9"/>
    </contour>
    <contour>
      <point x="233" y="-10" type="curve" smooth="yes"/>
      <point x="381" y="-10"/>
      <point x="482" y="185"/>
      <point x="482" y="389" type="curve" smooth="yes"/>
      <point x="482" y="535"/>
      <point x="430" y="658"/>
      <point x="339" y="700" type="curve"/>
      <point x="349" y="683" type="line"/>
      <point x="354" y="698" type="line"/>
      <point x="330" y="701" type="line"/>
      <point x="349" y="694"/>
      <point x="369" y="689"/>
      <point x="393" y="689" type="curve" smooth="yes"/>
      <point x="463" y="689"/>
      <point x="519" y="717"/>
      <point x="538" y="842" type="curve"/>
      <point x="505" y="842" type="line"/>
      <point x="489" y="745"/>
      <point x="457" y="706"/>
      <point x="394" y="706" type="curve" smooth="yes"/>
      <point x="350" y="706"/>
      <point x="321" y="720"/>
      <point x="274" y="720" type="curve" smooth="yes"/>
      <point x="125" y="720"/>
      <point x="27" y="525"/>
      <point x="27" y="321" type="curve" smooth="yes"/>
      <point x="27" y="146"/>
      <point x="105" y="-10"/>
    </contour>
  </outline>
</glyph>
<glyph name="schwa" format="2">
  <advance width="324"/>
  <unicode hex="0259"/>
  <outline>
    <contour>
      <point x="172" y="528" type="curve" smooth="yes"/>
      <point x="112" y="528"/>
      <point x="68" y="480"/>
      <point x="42" y="423" type="curve"/>
      <point x="51" y="411" type="line"/>
      <point x="79" y="472"/>
      <point x="118" y="510"/>
      <point x="171" y="510" type="curve" smooth="yes"/>
      <point x="228" y="510"/>
      <point x="267" y="447"/>
      <point x="267" y="306" type="curve" smooth="yes"/>
      <point x="267" y="139"/>
      <point x="205" y="7"/>
      <point x="121" y="7" type="curve" smooth="yes"/>
      <point x="79" y="7"/>
      <point x="55" y="52"/>
      <point x="55" y="107" type="curve" smooth="yes"/>
      <point x="55" y="204"/>
      <point x="109" y="267"/>
      <point x="279" y="302" type="curve"/>
      <point x="282" y="319" type="line"/>
      <point x="76" y="278"/>
      <point x="23" y="201"/>
      <point x="23" y="107" type="curve" smooth="yes"/>
      <point x="23" y="47"/>
      <point x="58" y="-10"/>
      <point x="120" y="-10" type="curve" smooth="yes"/>
      <point x="233" y="-10"/>
      <point x="304" y="145"/>
      <point x="304" y="304" type="curve" smooth="yes"/>
      <point x="304" y="456"/>
      <point x="248" y="528"/>
    </contour>
  </outline>
</glyph>
<glyph name="dotaccent" format="2">
  <advance width="343"/>
  <unicode hex="02D9"/>
  <anchor x="167" y="526" name="_top"/>
  <outline>
    <contour>
      <point x="179" y="658" type="curve" smooth="yes"/>
      <point x="165" y="658"/>
      <point x="153" y="672"/>
      <point x="153" y="694" type="curve" smooth="yes"/>
      <point x="153" y="716"/>
      <point x="165" y="729"/>
      <point x="179" y="729" type="curve" smooth="yes"/>
      <point x="194" y="729"/>
      <point x="206" y="716"/>
      <point x="206" y="694" type="curve" smooth="yes"/>
      <point x="206" y="672"/>
      <point x="194" y="658"/>
    </contour>
  </outline>
</glyph>
<glyph name="Delta" format="2">
  <advance width="485"/>
  <unicode hex="0394"/>
  <outline>
    <contour>
      <point x="-4" y="0" type="line"/>
      <point x="430" y="0" type="line"/>
      <point x="433" y="19" type="line"/>
      <point x="313" y="710" type="line"/>
      <point x="285" y="710" type="line"/>
      <point x="-1" y="19" type="line"/>
    </contour>
    <contour>
      <point x="411" y="11" type="line"/>
      <point x="418" y="24" type="line"/>
      <point x="11" y="24" type="line"/>
      <point x="12" y="9" type="line"/>
      <point x="299" y="704" type="line"/>
      <point x="291" y="704" type="line"/>
    </contour>
  </outline>
</glyph>
<glyph name="endash" format="2">
  <advance width="394"/>
  <unicode hex="2013"/>
  <outline>
    <contour>
      <point x="45" y="326" type="line"/>
      <point x="42" y="305" type="line"/>
      <point x="349" y="305" type="line"/>
      <point x="352" y="326" type="line"/>
    </contour>
  </outline>
</glyph>
<glyph name="perthousand" format="2">
  <advance width="741"/>
  <unicode hex="2030"/>
  <outline>
    <contour>
      <point x="126" y="382" type="curve" smooth="yes"/>
      <point x="190" y="382"/>
      <point x="237" y="468"/>
      <point x="237" y="579" type="curve" smooth="yes"/>
      <point x="237" y="655"/>
      <point x="203" y="720"/>
      <point x="148" y="720" type="curve" smooth="yes"/>
      <point x="84" y="720"/>
      <point x="36" y="633"/>
      <point x="36" y="523" type="curve" smooth="yes"/>
      <point x="36" y="447"/>
      <point x="72" y="382"/>
    </contour>
    <contour>
      <point x="124" y="398" type="curve" smooth="yes"/>
      <point x="90" y="398"/>
      <point x="70" y="440"/>
      <point x="70" y="522" type="curve" smooth="yes"/>
      <point x="70" y="616"/>
      <point x="98" y="704"/>
      <point x="150" y="704" type="curve" smooth="yes"/>
      <point x="184" y="704"/>
      <point x="204" y="660"/>
      <point x="204" y="580" type="curve" smooth="yes"/>
      <point x="204" y="486"/>
      <point x="175" y="398"/>
    </contour>
    <contour>
      <point x="350" y="-10" type="curve" smooth="yes"/>
      <point x="296" y="-10"/>
      <point x="261" y="55"/>
      <point x="261" y="131" type="curve" smooth="yes"/>
      <point x="261" y="241"/>
      <point x="308" y="328"/>
      <point x="373" y="328" type="curve" smooth="yes"/>
      <point x="428" y="328"/>
      <point x="461" y="263"/>
      <point x="461" y="187" type="curve" smooth="yes"/>
      <point x="461" y="76"/>
      <point x="415" y="-10"/>
    </contour>
    <contour>
      <point x="349" y="6" type="curve" smooth="yes"/>
      <point x="400" y="6"/>
      <point x="429" y="94"/>
      <point x="429" y="188" type="curve" smooth="yes"/>
      <point x="429" y="268"/>
      <point x="409" y="312"/>
      <point x="374" y="312" type="curve" smooth="yes"/>
      <point x="323" y="312"/>
      <point x="294" y="224"/>
      <point x="294" y="130" type="curve" smooth="yes"/>
      <point x="294" y="48"/>
      <point x="315" y="6"/>
    </contour>
    <contour>
      <point x="597" y="-10" type="curve" smooth="yes"/>
      <point x="543" y="-10"/>
      <point x="507" y="55"/>
      <point x="507" y="131" type="curve" smooth="yes"/>
      <point x="507" y="241"/>
      <point x="555" y="328"/>
      <point x="619" y="328" type="curve" smooth="yes"/>
      <point x="674" y="328"/>
      <point x="708" y="263"/>
      <point x="708" y="187" type="curve" smooth="yes"/>
      <point x="708" y="76"/>
      <point x="661" y="-10"/>
    </contour>
    <contour>
      <point x="595" y="6" type="curve" smooth="yes"/>
      <point x="645" y="6"/>
      <point x="674" y="94"/>
      <point x="674" y="188" type="curve" smooth="yes"/>
      <point x="674" y="268"/>
      <point x="655" y="312"/>
      <point x="621" y="312" type="curve" smooth="yes"/>
      <point x="569" y="312"/>
      <point x="540" y="224"/>
      <point x="540" y="130" type="curve" smooth="yes"/>
      <point x="540" y="48"/>
      <point x="561" y="6"/>
    </contour>
    <component base="fraction" xOffset="108"/>
  </outline>
</glyph>
<glyph name="dong" format="2">
  <advance width="384"/>
  <unicode hex="20AB"/>
  <outline>
    <contour>
      <point x="129" y="-10" type="curve" smooth="yes"/>
      <point x="197" y="-10"/>
      <point x="242" y="76"/>
      <point x="287" y="209" type="curve"/>
      <point x="281" y="227" type="line"/>
      <point x="237" y="102"/>
      <point x="193" y="9"/>
      <point x="133" y="9" type="curve" smooth="yes"/>
      <point x="83" y="9"/>
      <point x="63" y="88"/>
      <point x="63" y="186" type="curve" smooth="yes"/>
      <point x="63" y="245"/>
      <point x="70" y="305"/>
      <point x="84" y="355" type="curve" smooth="yes"/>
      <point x="107" y="443"/>
      <point x="150" y="510"/>
      <point x="212" y="510" type="curve" smooth="yes"/>
      <point x="262" y="510"/>
      <point x="301" y="465"/>
      <point x="313" y="381" type="curve"/>
      <point x="323" y="400" type="line"/>
      <point x="309" y="481"/>
      <point x="267" y="528"/>
      <point x="212" y="528" type="curve" smooth="yes"/>
      <point x="97" y="528"/>
      <point x="26" y="356"/>
      <point x="26" y="188" type="curve" smooth="yes"/>
      <point x="26" y="76"/>
      <point x="59" y="-10"/>
    </contour>
    <contour>
      <point x="307" y="-7" type="curve" smooth="yes"/>
      <point x="325" y="-7"/>
      <point x="343" y="2"/>
      <point x="350" y="10" type="curve"/>
      <point x="353" y="27" type="line"/>
      <point x="347" y="23"/>
      <point x="331" y="13"/>
      <point x="316" y="13" type="curve" smooth="yes"/>
      <point x="297" y="13"/>
      <point x="289" y="25"/>
      <point x="289" y="57" type="curve" smooth="yes"/>
      <point x="289" y="83"/>
      <point x="294" y="130"/>
      <point x="300" y="174" type="curve" smooth="yes"/>
      <point x="370" y="750" type="line"/>
      <point x="336" y="750" type="line"/>
      <point x="265" y="171" type="line"/>
      <point x="265" y="168" type="line"/>
      <point x="260" y="123"/>
      <point x="256" y="88"/>
      <point x="256" y="62" type="curve" smooth="yes"/>
      <point x="256" y="13"/>
      <point x="278" y="-7"/>
    </contour>
    <contour>
      <point x="39" y="-144" type="line"/>
      <point x="313" y="-144" type="line"/>
      <point x="315" y="-126" type="line"/>
      <point x="42" y="-126" type="line"/>
    </contour>
    <contour>
      <point x="192" y="627" type="line"/>
      <point x="416" y="627" type="line"/>
      <point x="418" y="643" type="line"/>
      <point x="194" y="643" type="line"/>
    </contour>
  </outline>
</glyph>
<glyph name="uni20B4" format="2">
  <advance width="384"/>
  <unicode hex="20B4"/>
  <outline>
    <contour>
      <point x="13" y="294" type="line"/>
      <point x="366" y="294" type="line"/>
      <point x="369" y="311" type="line"/>
      <point x="15" y="311" type="line"/>
    </contour>
    <contour>
      <point x="29" y="429" type="line"/>
      <point x="383" y="429" type="line"/>
      <point x="385" y="446" type="line"/>
      <point x="32" y="446" type="line"/>
    </contour>
    <contour>
      <point x="175" y="-10" type="curve" smooth="yes"/>
      <point x="239" y="-10"/>
      <point x="287" y="24"/>
      <point x="311" y="61" type="curve"/>
      <point x="322" y="151" type="line"/>
      <point x="285" y="151" type="line"/>
      <point x="270" y="35" type="line"/>
      <point x="284" y="35"/>
      <point x="299" y="60"/>
      <point x="295" y="82" type="curve"/>
      <point x="271" y="37"/>
      <point x="230" y="7"/>
      <point x="176" y="7" type="curve" smooth="yes"/>
      <point x="108" y="7"/>
      <point x="67" y="62"/>
      <point x="67" y="152" type="curve" smooth="yes"/>
      <point x="67" y="211"/>
      <point x="86" y="266"/>
      <point x="125" y="298" type="curve"/>
      <point x="78" y="297" type="line"/>
      <point x="48" y="259"/>
      <point x="32" y="212"/>
      <point x="32" y="153" type="curve" smooth="yes"/>
      <point x="32" y="56"/>
      <point x="85" y="-10"/>
    </contour>
    <contour>
      <point x="313" y="439" type="line"/>
      <point x="337" y="467"/>
      <point x="356" y="517"/>
      <point x="356" y="579" type="curve" smooth="yes"/>
      <point x="356" y="663"/>
      <point x="310" y="720"/>
      <point x="234" y="720" type="curve" smooth="yes"/>
      <point x="177" y="720"/>
      <point x="131" y="688"/>
      <point x="111" y="659" type="curve"/>
      <point x="101" y="581" type="line"/>
      <point x="140" y="581" type="line"/>
      <point x="151" y="675" type="line"/>
      <point x="140" y="681"/>
      <point x="124" y="650"/>
      <point x="127" y="636" type="curve"/>
      <point x="147" y="675"/>
      <point x="182" y="703"/>
      <point x="230" y="703" type="curve" smooth="yes"/>
      <point x="294" y="703"/>
      <point x="322" y="650"/>
      <point x="322" y="584" type="curve" smooth="yes"/>
      <point x="322" y="517"/>
      <point x="299" y="465"/>
      <point x="267" y="442" type="curve"/>
    </contour>
  </outline>
</glyph>
<glyph name="cedi" format="2">
  <advance width="384"/>
  <unicode hex="20B5"/>
  <outline>
    <contour>
      <point x="253" y="683" type="curve" smooth="yes"/>
      <point x="310" y="683"/>
      <point x="355" y="651"/>
      <point x="365" y="620" type="curve"/>
      <point x="371" y="631"/>
      <point x="368" y="644"/>
      <point x="354" y="652" type="curve"/>
      <point x="342" y="556" type="line"/>
      <point x="381" y="556" type="line"/>
      <point x="390" y="630" type="line"/>
      <point x="368" y="665"/>
      <point x="322" y="700"/>
      <point x="253" y="700" type="curve" smooth="yes"/>
      <point x="111" y="700"/>
      <point x="26" y="508"/>
      <point x="26" y="300" type="curve" smooth="yes"/>
      <point x="26" y="117"/>
      <point x="99" y="10"/>
      <point x="191" y="10" type="curve" smooth="yes"/>
      <point x="269" y="10"/>
      <point x="325" y="85"/>
      <point x="357" y="215" type="curve"/>
      <point x="346" y="225" type="line"/>
      <point x="317" y="108"/>
      <point x="266" y="27"/>
      <point x="192" y="27" type="curve" smooth="yes"/>
      <point x="112" y="27"/>
      <point x="63" y="120"/>
      <point x="63" y="298" type="curve" smooth="yes"/>
      <point x="63" y="359"/>
      <point x="69" y="416"/>
      <point x="80" y="466" type="curve" smooth="yes"/>
      <point x="110" y="601"/>
      <point x="168" y="683"/>
    </contour>
    <contour>
      <point x="254" y="790" type="line"/>
      <point x="242" y="691" type="line"/>
      <point x="241" y="686" type="line"/>
      <point x="162" y="30" type="line"/>
      <point x="161" y="24" type="line"/>
      <point x="144" y="-120" type="line"/>
      <point x="159" y="-120" type="line"/>
      <point x="176" y="22" type="line"/>
      <point x="177" y="28" type="line"/>
      <point x="256" y="686" type="line"/>
      <point x="256" y="692" type="line"/>
      <point x="268" y="790" type="line"/>
    </contour>
  </outline>
</glyph>
<glyph name="uni20B8" format="2">
  <advance width="384"/>
  <unicode hex="20B8"/>
  <outline>
    <contour>
      <point x="139" y="43" type="line" smooth="yes"/>
      <point x="136" y="21"/>
      <point x="111" y="15"/>
      <point x="80" y="15" type="curve" smooth="yes"/>
      <point x="70" y="15" type="line"/>
      <point x="67" y="0" type="line"/>
      <point x="234" y="0" type="line"/>
      <point x="237" y="15" type="line"/>
      <point x="225" y="15" type="line" smooth="yes"/>
      <point x="194" y="15"/>
      <point x="172" y="21"/>
      <point x="174" y="43" type="curve" smooth="yes"/>
      <point x="236" y="560" type="line"/>
      <point x="294" y="560" type="line" smooth="yes"/>
      <point x="342" y="560"/>
      <point x="360" y="554"/>
      <point x="359" y="526" type="curve" smooth="yes"/>
      <point x="354" y="425" type="line"/>
      <point x="367" y="425" type="line"/>
      <point x="386" y="578" type="line"/>
      <point x="56" y="578" type="line"/>
      <point x="36" y="425" type="line"/>
      <point x="50" y="425" type="line"/>
      <point x="70" y="526" type="line" smooth="yes"/>
      <point x="76" y="554"/>
      <point x="95" y="560"/>
      <point x="142" y="560" type="curve" smooth="yes"/>
      <point x="200" y="560" type="line"/>
    </contour>
    <contour>
      <point x="72" y="710" type="line"/>
      <point x="70" y="693" type="line"/>
      <point x="400" y="693" type="line"/>
      <point x="402" y="710" type="line"/>
    </contour>
  </outline>
</glyph>
<glyph name="ruble" format="2">
  <advance width="384"/>
  <unicode hex="20BD"/>
  <outline>
    <contour>
      <point x="248" y="197" type="line"/>
      <point x="21" y="197" type="line"/>
      <point x="23" y="215" type="line"/>
      <point x="250" y="215" type="line"/>
    </contour>
    <contour>
      <point x="42" y="369" type="line"/>
      <point x="217" y="369" type="line" smooth="yes"/>
      <point x="299" y="369"/>
      <point x="344" y="427"/>
      <point x="354" y="504" type="curve" smooth="yes"/>
      <point x="357" y="520"/>
      <point x="357" y="534"/>
      <point x="357" y="548" type="curve" smooth="yes"/>
      <point x="357" y="639"/>
      <point x="319" y="693"/>
      <point x="237" y="693" type="curve" smooth="yes"/>
      <point x="175" y="693" type="line"/>
      <point x="95" y="27" type="line"/>
      <point x="94" y="19"/>
      <point x="124" y="15"/>
      <point x="148" y="15" type="curve" smooth="yes"/>
      <point x="165" y="15" type="line"/>
      <point x="163" y="0" type="line"/>
      <point x="-3" y="0" type="line"/>
      <point x="-1" y="15" type="line"/>
      <point x="6" y="15" type="line" smooth="yes"/>
      <point x="35" y="15"/>
      <point x="59" y="21"/>
      <point x="62" y="42" type="curve" smooth="yes"/>
      <point x="136" y="668" type="line" smooth="yes"/>
      <point x="139" y="689"/>
      <point x="116" y="695"/>
      <point x="88" y="695" type="curve" smooth="yes"/>
      <point x="81" y="695" type="line"/>
      <point x="83" y="710" type="line"/>
      <point x="239" y="710" type="line" smooth="yes"/>
      <point x="342" y="710"/>
      <point x="395" y="648"/>
      <point x="395" y="547" type="curve" smooth="yes"/>
      <point x="395" y="448"/>
      <point x="343" y="352"/>
      <point x="216" y="352" type="curve" smooth="yes"/>
      <point x="40" y="352" type="line"/>
    </contour>
  </outline>
</glyph>
<glyph name="litre" format="2">
  <advance width="339"/>
  <unicode hex="2113"/>
  <outline>
    <contour>
      <point x="142" y="238" type="curve" smooth="yes"/>
      <point x="142" y="603"/>
      <point x="171" y="703"/>
      <point x="221" y="703" type="curve" smooth="yes"/>
      <point x="255" y="703"/>
      <point x="265" y="647"/>
      <point x="265" y="589" type="curve" smooth="yes"/>
      <point x="265" y="419"/>
      <point x="168" y="275"/>
      <point x="27" y="209" type="curve"/>
      <point x="31" y="192" type="line"/>
      <point x="175" y="256"/>
      <point x="286" y="412"/>
      <point x="286" y="588" type="curve" smooth="yes"/>
      <point x="286" y="658"/>
      <point x="270" y="720"/>
      <point x="222" y="720" type="curve" smooth="yes"/>
      <point x="154" y="720"/>
      <point x="106" y="596"/>
      <point x="106" y="238" type="curve" smooth="yes"/>
      <point x="106" y="55"/>
      <point x="141" y="-10"/>
      <point x="199" y="-10" type="curve" smooth="yes"/>
      <point x="250" y="-10"/>
      <point x="280" y="55"/>
      <point x="298" y="130" type="curve"/>
      <point x="287" y="139" type="line"/>
      <point x="271" y="75"/>
      <point x="245" y="7"/>
      <point x="202" y="7" type="curve" smooth="yes"/>
      <point x="167" y="7"/>
      <point x="142" y="47"/>
    </contour>
  </outline>
</glyph>
<glyph name="partialdiff" format="2">
  <advance width="378"/>
  <unicode hex="2202"/>
  <outline>
    <contour>
      <point x="158" y="-10" type="curve" smooth="yes"/>
      <point x="268" y="-10"/>
      <point x="340" y="200"/>
      <point x="340" y="457" type="curve" smooth="yes"/>
      <point x="340" y="671"/>
      <point x="286" y="757"/>
      <point x="206" y="757" type="curve" smooth="yes"/>
      <point x="170" y="757"/>
      <point x="136" y="737"/>
      <point x="111" y="712" type="curve"/>
      <point x="117" y="695" type="line"/>
      <point x="138" y="717"/>
      <point x="169" y="739"/>
      <point x="203" y="739" type="curve" smooth="yes"/>
      <point x="265" y="739"/>
      <point x="304" y="665"/>
      <point x="304" y="489" type="curve" smooth="yes"/>
      <point x="304" y="242"/>
      <point x="254" y="7"/>
      <point x="158" y="7" type="curve" smooth="yes"/>
      <point x="103" y="7"/>
      <point x="77" y="78"/>
      <point x="77" y="209" type="curve" smooth="yes"/>
      <point x="77" y="373"/>
      <point x="138" y="511"/>
      <point x="225" y="511" type="curve" smooth="yes"/>
      <point x="272" y="511"/>
      <point x="303" y="476"/>
      <point x="327" y="436" type="curve"/>
      <point x="318" y="478" type="line"/>
      <point x="307" y="493"/>
      <point x="274" y="528"/>
      <point x="225" y="528" type="curve" smooth="yes"/>
      <point x="123" y="528"/>
      <point x="41" y="385"/>
      <point x="41" y="202" type="curve" smooth="yes"/>
      <point x="41" y="71"/>
      <point x="85" y="-10"/>
    </contour>
  </outline>
</glyph>
<glyph name="emptyset" format="2">
  <advance width="478"/>
  <unicode hex="2205"/>
  <outline>
    <contour>
      <point x="233" y="10" type="curve" smooth="yes"/>
      <point x="143" y="10"/>
      <point x="66" y="109"/>
      <point x="66" y="259" type="curve" smooth="yes"/>
      <point x="66" y="410"/>
      <point x="149" y="531"/>
      <point x="254" y="531" type="curve" smooth="yes"/>
      <point x="343" y="531"/>
      <point x="421" y="432"/>
      <point x="421" y="283" type="curve" smooth="yes"/>
      <point x="421" y="130"/>
      <point x="338" y="10"/>
    </contour>
    <contour>
      <point x="233" y="-7" type="curve" smooth="yes"/>
      <point x="346" y="-7"/>
      <point x="436" y="121"/>
      <point x="436" y="283" type="curve" smooth="yes"/>
      <point x="436" y="444"/>
      <point x="351" y="549"/>
      <point x="255" y="549" type="curve" smooth="yes"/>
      <point x="141" y="549"/>
      <point x="51" y="421"/>
      <point x="51" y="259" type="curve" smooth="yes"/>
      <point x="51" y="97"/>
      <point x="137" y="-7"/>
    </contour>
    <contour>
      <point x="6" y="-34" type="line"/>
      <point x="480" y="561" type="line"/>
      <point x="471" y="575" type="line"/>
      <point x="-3" y="-20" type="line"/>
    </contour>
  </outline>
</glyph>
<glyph name="radical" format="2">
  <advance width="401"/>
  <unicode hex="221A"/>
  <outline>
    <contour>
      <point x="42" y="341" type="line"/>
      <point x="124" y="341" type="line"/>
      <point x="101" y="347" type="line"/>
      <point x="150" y="0" type="line"/>
      <point x="169" y="0" type="line"/>
      <point x="179" y="39" type="line"/>
      <point x="135" y="360" type="line"/>
      <point x="45" y="360" type="line"/>
    </contour>
    <contour>
      <point x="402" y="710" type="line"/>
      <point x="158" y="0" type="line"/>
      <point x="175" y="0" type="line"/>
      <point x="420" y="710" type="line"/>
    </contour>
  </outline>
</glyph>
<glyph name="approxequal" format="2">
  <advance width="384"/>
  <unicode hex="2248"/>
  <outline>
    <contour>
      <point x="247" y="160" type="curve" smooth="yes"/>
      <point x="203" y="160"/>
      <point x="178" y="251"/>
      <point x="121" y="251" type="curve" smooth="yes"/>
      <point x="77" y="251"/>
      <point x="54" y="196"/>
      <point x="46" y="142" type="curve"/>
      <point x="57" y="137" type="line"/>
      <point x="65" y="179"/>
      <point x="80" y="223"/>
      <point x="117" y="223" type="curve" smooth="yes"/>
      <point x="163" y="223"/>
      <point x="190" y="132"/>
      <point x="242" y="132" type="curve" smooth="yes"/>
      <point x="285" y="132"/>
      <point x="303" y="189"/>
      <point x="316" y="243" type="curve"/>
      <point x="305" y="248" type="line"/>
      <point x="294" y="211"/>
      <point x="282" y="160"/>
    </contour>
    <contour>
      <point x="268" y="358" type="curve" smooth="yes"/>
      <point x="223" y="358"/>
      <point x="198" y="449"/>
      <point x="142" y="449" type="curve" smooth="yes"/>
      <point x="98" y="449"/>
      <point x="76" y="394"/>
      <point x="67" y="341" type="curve"/>
      <point x="79" y="336" type="line"/>
      <point x="86" y="377"/>
      <point x="101" y="421"/>
      <point x="138" y="421" type="curve" smooth="yes"/>
      <point x="183" y="421"/>
      <point x="211" y="330"/>
      <point x="263" y="330" type="curve" smooth="yes"/>
      <point x="306" y="330"/>
      <point x="324" y="387"/>
      <point x="337" y="441" type="curve"/>
      <point x="326" y="447" type="line"/>
      <point x="315" y="410"/>
      <point x="303" y="358"/>
    </contour>
  </outline>
</glyph>
<glyph name="uni25BF" format="2">
  <advance width="428"/>
  <unicode hex="25BF"/>
  <outline>
    <contour>
      <point x="397" y="464" type="line"/>
      <point x="31" y="464" type="line"/>
      <point x="214" y="91" type="line"/>
    </contour>
    <contour>
      <point x="339" y="414" type="line"/>
      <point x="334" y="430" type="line"/>
      <point x="211" y="175" type="line"/>
      <point x="218" y="175" type="line"/>
      <point x="94" y="430" type="line"/>
      <point x="90" y="414" type="line"/>
    </contour>
  </outline>
</glyph>
<glyph name="lozenge" format="2">
  <advance width="437"/>
  <unicode hex="25CA"/>
  <outline>
    <contour>
      <point x="188" y="9" type="line"/>
      <point x="50" y="363" type="line"/>
      <point x="48" y="347" type="line"/>
      <point x="271" y="700" type="line"/>
      <point x="259" y="701" type="line"/>
      <point x="397" y="348" type="line"/>
      <point x="399" y="365" type="line"/>
      <point x="176" y="10" type="line"/>
    </contour>
    <contour>
      <point x="173" y="0" type="line"/>
      <point x="189" y="0" type="line"/>
      <point x="409" y="347" type="line"/>
      <point x="410" y="363" type="line"/>
      <point x="275" y="710" type="line"/>
      <point x="259" y="710" type="line"/>
      <point x="39" y="363" type="line"/>
      <point x="37" y="347" type="line"/>
    </contour>
  </outline>
</glyph>
<glyph name="zero.den" format="2">
  <advance width="214"/>
  <unicode hex="E402"/>
  <outline>
    <contour>
      <point x="143" y="140" type="curve" smooth="yes"/>
      <point x="134" y="70"/>
      <point x="113" y="9"/>
      <point x="74" y="9" type="curve" smooth="yes"/>
      <point x="43" y="9"/>
      <point x="28" y="51"/>
      <point x="28" y="128" type="curve" smooth="yes"/>
      <point x="28" y="150"/>
      <point x="29" y="174"/>
      <point x="32" y="197" type="curve" smooth="yes"/>
      <point x="40" y="268"/>
      <point x="62" y="332"/>
      <point x="100" y="332" type="curve" smooth="yes"/>
      <point x="132" y="332"/>
      <point x="148" y="290"/>
      <point x="148" y="213" type="curve" smooth="yes"/>
      <point x="148" y="190"/>
      <point x="146" y="164"/>
    </contour>
    <contour>
      <point x="181" y="202" type="curve" smooth="yes"/>
      <point x="181" y="285"/>
      <point x="154" y="347"/>
      <point x="101" y="347" type="curve" smooth="yes"/>
      <point x="28" y="347"/>
      <point x="-6" y="228"/>
      <point x="-6" y="139" type="curve" smooth="yes"/>
      <point x="-6" y="56"/>
      <point x="23" y="-6"/>
      <point x="74" y="-6" type="curve" smooth="yes"/>
      <point x="148" y="-6"/>
      <point x="181" y="113"/>
    </contour>
  </outline>
</glyph>
<glyph name="five.den" format="2">
  <advance width="211"/>
  <unicode hex="E407"/>
  <outline>
    <contour>
      <point x="74" y="-6" type="curve" smooth="yes"/>
      <point x="30" y="-6"/>
      <point x="4" y="26"/>
      <point x="-9" y="73" type="curve"/>
      <point x="1" y="80" type="line"/>
      <point x="13" y="34"/>
      <point x="34" y="9"/>
      <point x="73" y="9" type="curve" smooth="yes"/>
      <point x="113" y="9"/>
      <point x="135" y="57"/>
      <point x="135" y="121" type="curve" smooth="yes"/>
      <point x="135" y="178"/>
      <point x="117" y="208"/>
      <point x="88" y="208" type="curve" smooth="yes"/>
      <point x="65" y="208"/>
      <point x="46" y="192"/>
      <point x="28" y="153" type="curve"/>
      <point x="20" y="153" type="line"/>
      <point x="44" y="341" type="line"/>
      <point x="174" y="341" type="line"/>
      <point x="166" y="307" type="line"/>
      <point x="41" y="307" type="line"/>
      <point x="52" y="326" type="line"/>
      <point x="33" y="173" type="line"/>
      <point x="32" y="169"/>
      <point x="28" y="170"/>
      <point x="28" y="170" type="curve"/>
      <point x="43" y="205"/>
      <point x="68" y="223"/>
      <point x="95" y="223" type="curve" smooth="yes"/>
      <point x="139" y="223"/>
      <point x="170" y="180"/>
      <point x="170" y="121" type="curve" smooth="yes"/>
      <point x="170" y="53"/>
      <point x="132" y="-6"/>
    </contour>
  </outline>
</glyph>
<glyph name="six.den" format="2">
  <advance width="212"/>
  <unicode hex="E408"/>
  <outline>
    <contour>
      <point x="83" y="-6" type="curve" smooth="yes"/>
      <point x="34" y="-6"/>
      <point x="-2" y="37"/>
      <point x="-2" y="122" type="curve" smooth="yes"/>
      <point x="-2" y="236"/>
      <point x="60" y="346"/>
      <point x="173" y="358" type="curve"/>
      <point x="174" y="345" type="line"/>
      <point x="81" y="334"/>
      <point x="32" y="241"/>
      <point x="32" y="120" type="curve" smooth="yes"/>
      <point x="32" y="42"/>
      <point x="54" y="9"/>
      <point x="83" y="9" type="curve" smooth="yes"/>
      <point x="120" y="9"/>
      <point x="139" y="60"/>
      <point x="139" y="121" type="curve" smooth="yes"/>
      <point x="139" y="175"/>
      <point x="123" y="211"/>
      <point x="96" y="211" type="curve" smooth="yes"/>
      <point x="64" y="211"/>
      <point x="41" y="182"/>
      <point x="21" y="125" type="curve"/>
      <point x="20" y="140" type="line"/>
      <point x="34" y="187"/>
      <point x="64" y="225"/>
      <point x="102" y="225" type="curve" smooth="yes"/>
      <point x="146" y="225"/>
      <point x="175" y="182"/>
      <point x="175" y="121" type="curve" smooth="yes"/>
      <point x="175" y="57"/>
      <point x="143" y="-6"/>
    </contour>
  </outline>
</glyph>
<glyph name="eight.den" format="2">
  <advance width="210"/>
  <unicode hex="E40A"/>
  <outline>
    <contour>
      <point x="81" y="-6" type="curve" smooth="yes"/>
      <point x="134" y="-6"/>
      <point x="168" y="40"/>
      <point x="168" y="96" type="curve" smooth="yes"/>
      <point x="168" y="143"/>
      <point x="138" y="185"/>
      <point x="81" y="185" type="curve" smooth="yes"/>
      <point x="27" y="185"/>
      <point x="-5" y="145"/>
      <point x="-5" y="90" type="curve" smooth="yes"/>
      <point x="-5" y="34"/>
      <point x="30" y="-6"/>
    </contour>
    <contour>
      <point x="99" y="179" type="curve" smooth="yes"/>
      <point x="146" y="179"/>
      <point x="176" y="215"/>
      <point x="176" y="263" type="curve" smooth="yes"/>
      <point x="176" y="312"/>
      <point x="146" y="346"/>
      <point x="101" y="346" type="curve" smooth="yes"/>
      <point x="53" y="346"/>
      <point x="23" y="309"/>
      <point x="23" y="262" type="curve" smooth="yes"/>
      <point x="23" y="212"/>
      <point x="55" y="179"/>
    </contour>
    <contour>
      <point x="97" y="188" type="curve" smooth="yes"/>
      <point x="73" y="188"/>
      <point x="58" y="211"/>
      <point x="58" y="251" type="curve" smooth="yes"/>
      <point x="58" y="264"/>
      <point x="59" y="278"/>
      <point x="62" y="288" type="curve" smooth="yes"/>
      <point x="69" y="316"/>
      <point x="83" y="331"/>
      <point x="103" y="331" type="curve" smooth="yes"/>
      <point x="126" y="331"/>
      <point x="142" y="308"/>
      <point x="142" y="267" type="curve" smooth="yes"/>
      <point x="142" y="254"/>
      <point x="140" y="242"/>
      <point x="137" y="232" type="curve" smooth="yes"/>
      <point x="131" y="205"/>
      <point x="116" y="188"/>
    </contour>
    <contour>
      <point x="85" y="173" type="curve" smooth="yes"/>
      <point x="115" y="173"/>
      <point x="133" y="145"/>
      <point x="133" y="98" type="curve" smooth="yes"/>
      <point x="133" y="83"/>
      <point x="131" y="70"/>
      <point x="129" y="57" type="curve" smooth="yes"/>
      <point x="120" y="28"/>
      <point x="104" y="9"/>
      <point x="79" y="9" type="curve" smooth="yes"/>
      <point x="47" y="9"/>
      <point x="30" y="35"/>
      <point x="30" y="82" type="curve" smooth="yes"/>
      <point x="30" y="100"/>
      <point x="33" y="117"/>
      <point x="37" y="132" type="curve" smooth="yes"/>
      <point x="46" y="157"/>
      <point x="61" y="173"/>
    </contour>
  </outline>
</glyph>
<glyph name="f_f_l" format="2">
  <advance width="536"/>
  <unicode hex="FB04"/>
  <outline>
    <contour>
      <point x="149" y="518" type="line"/>
      <point x="147" y="501" type="line"/>
      <point x="350" y="501" type="line"/>
      <point x="353" y="518" type="line"/>
    </contour>
    <contour>
      <point x="86" y="518" type="line"/>
      <point x="83" y="501" type="line"/>
      <point x="251" y="501" type="line"/>
      <point x="253" y="518" type="line"/>
    </contour>
    <contour>
      <point x="221" y="726" type="curve" smooth="yes"/>
      <point x="243" y="726"/>
      <point x="259" y="716"/>
      <point x="267" y="709" type="curve"/>
      <point x="269" y="730" type="line"/>
      <point x="257" y="740"/>
      <point x="240" y="744"/>
      <point x="220" y="744" type="curve" smooth="yes"/>
      <point x="158" y="744"/>
      <point x="113" y="689"/>
      <point x="103" y="594" type="curve" smooth="yes"/>
      <point x="25" y="-223" type="line"/>
      <point x="54" y="-223" type="line"/>
      <point x="138" y="595" type="line" smooth="yes"/>
      <point x="147" y="683"/>
      <point x="171" y="726"/>
    </contour>
    <contour>
      <point x="459" y="174" type="curve"/>
      <point x="530" y="750" type="line"/>
      <point x="457" y="750" type="line"/>
      <point x="492" y="730" type="line"/>
      <point x="427" y="193" type="line" smooth="yes"/>
      <point x="420" y="135"/>
      <point x="414" y="91"/>
      <point x="414" y="62" type="curve" smooth="yes"/>
      <point x="414" y="13"/>
      <point x="437" y="-7"/>
      <point x="467" y="-7" type="curve" smooth="yes"/>
      <point x="485" y="-7"/>
      <point x="504" y="2"/>
      <point x="511" y="11" type="curve"/>
      <point x="514" y="27" type="line"/>
      <point x="507" y="23"/>
      <point x="491" y="13"/>
      <point x="475" y="13" type="curve" smooth="yes"/>
      <point x="456" y="13"/>
      <point x="448" y="25"/>
      <point x="448" y="57" type="curve" smooth="yes"/>
      <point x="448" y="83"/>
      <point x="454" y="130"/>
    </contour>
    <contour>
      <point x="422" y="741" type="curve" smooth="yes"/>
      <point x="459" y="741"/>
      <point x="488" y="724"/>
      <point x="505" y="707" type="curve"/>
      <point x="517" y="728" type="line"/>
      <point x="501" y="744"/>
      <point x="465" y="758"/>
      <point x="423" y="758" type="curve" smooth="yes"/>
      <point x="346" y="758"/>
      <point x="299" y="703"/>
      <point x="289" y="606" type="curve" smooth="yes"/>
      <point x="212" y="-193" type="line"/>
      <point x="241" y="-193" type="line"/>
      <point x="323" y="603" type="line" smooth="yes"/>
      <point x="333" y="694"/>
      <point x="360" y="741"/>
    </contour>
  </outline>
</glyph>
<glyph name="AE.alt" format="2">
  <advance width="645"/>
  <outline>
    <contour>
      <point x="151" y="289" type="line"/>
      <point x="142" y="271" type="line"/>
      <point x="332" y="271" type="line"/>
      <point x="336" y="289" type="line"/>
    </contour>
    <contour>
      <point x="-40" y="0" type="line"/>
      <point x="79" y="0" type="line"/>
      <point x="82" y="15" type="line"/>
      <point x="72" y="15" type="line" smooth="yes"/>
      <point x="40" y="15"/>
      <point x="24" y="21"/>
      <point x="25" y="38" type="curve"/>
      <point x="375" y="689" type="line"/>
      <point x="375" y="689" type="line"/>
      <point x="297" y="42" type="line" smooth="yes"/>
      <point x="295" y="21"/>
      <point x="271" y="15"/>
      <point x="242" y="15" type="curve" smooth="yes"/>
      <point x="236" y="15" type="line"/>
      <point x="233" y="0" type="line"/>
      <point x="568" y="0" type="line"/>
      <point x="590" y="178" type="line"/>
      <point x="577" y="178" type="line"/>
      <point x="553" y="55" type="line" smooth="yes"/>
      <point x="545" y="24"/>
      <point x="525" y="18"/>
      <point x="463" y="18" type="curve" smooth="yes"/>
      <point x="330" y="18" type="line"/>
      <point x="410" y="692" type="line"/>
      <point x="536" y="692" type="line" smooth="yes"/>
      <point x="589" y="692"/>
      <point x="605" y="686"/>
      <point x="604" y="658" type="curve"/>
      <point x="600" y="557" type="line"/>
      <point x="613" y="557" type="line"/>
      <point x="632" y="710" type="line"/>
      <point x="285" y="710" type="line"/>
      <point x="282" y="695" type="line"/>
      <point x="291" y="695" type="line" smooth="yes"/>
      <point x="326" y="695"/>
      <point x="351" y="689"/>
      <point x="350" y="676" type="curve"/>
      <point x="24" y="73" type="line"/>
      <point x="-1" y="29"/>
      <point x="-13" y="15"/>
      <point x="-35" y="15" type="curve" smooth="yes"/>
      <point x="-38" y="15" type="line"/>
    </contour>
    <contour>
      <point x="359" y="373" type="line"/>
      <point x="357" y="355" type="line"/>
      <point x="494" y="355" type="line" smooth="yes"/>
      <point x="515" y="355"/>
      <point x="518" y="337"/>
      <point x="513" y="292" type="curve" smooth="yes"/>
      <point x="513" y="284" type="line"/>
      <point x="525" y="284" type="line"/>
      <point x="545" y="446" type="line"/>
      <point x="533" y="446" type="line"/>
      <point x="532" y="440" type="line" smooth="yes"/>
      <point x="527" y="401"/>
      <point x="517" y="373"/>
      <point x="497" y="373" type="curve" smooth="yes"/>
    </contour>
  </outline>
</glyph>
<glyph name="acute.ucpl" format="2">
  <advance width="343"/>
  <anchor x="119" y="694" name="_top"/>
  <outline>
    <contour>
      <point x="138" y="852" type="curve" smooth="yes"/>
      <point x="120" y="757" type="line"/>
      <point x="119" y="750" type="line"/>
      <point x="128" y="750" type="line"/>
      <point x="165" y="826" type="line" smooth="yes"/>
      <point x="178" y="848"/>
      <point x="185" y="865"/>
      <point x="185" y="881" type="curve" smooth="yes"/>
      <point x="185" y="895"/>
      <point x="179" y="905"/>
      <point x="168" y="905" type="curve" smooth="yes"/>
      <point x="152" y="905"/>
      <point x="146" y="887"/>
    </contour>
  </outline>
</glyph>
<glyph name="breve_tilde" format="2">
  <advance width="343"/>
  <anchor x="160" y="524" name="_top"/>
  <outline>
    <contour>
      <point x="229" y="792" type="curve" smooth="yes"/>
      <point x="253" y="792"/>
      <point x="269" y="811"/>
      <point x="285" y="877" type="curve"/>
      <point x="273" y="884" type="line"/>
      <point x="261" y="840"/>
      <point x="252" y="829"/>
      <point x="236" y="829" type="curve" smooth="yes"/>
      <point x="212" y="829"/>
      <point x="193" y="882"/>
      <point x="162" y="882" type="curve" smooth="yes"/>
      <point x="136" y="882"/>
      <point x="117" y="853"/>
      <point x="104" y="794" type="curve"/>
      <point x="116" y="788" type="line"/>
      <point x="125" y="826"/>
      <point x="136" y="845"/>
      <point x="154" y="845" type="curve" smooth="yes"/>
      <point x="177" y="845"/>
      <point x="197" y="792"/>
    </contour>
    <contour>
      <point x="180" y="604" type="curve" smooth="yes"/>
      <point x="223" y="604"/>
      <point x="257" y="640"/>
      <point x="266" y="739" type="curve"/>
      <point x="253" y="739" type="line"/>
      <point x="242" y="672"/>
      <point x="218" y="644"/>
      <point x="183" y="644" type="curve" smooth="yes"/>
      <point x="136" y="644"/>
      <point x="125" y="681"/>
      <point x="123" y="739" type="curve"/>
      <point x="110" y="739" type="line"/>
      <point x="110" y="733"/>
      <point x="110" y="727"/>
      <point x="110" y="723" type="curve" smooth="yes"/>
      <point x="109" y="645"/>
      <point x="135" y="604"/>
    </contour>
  </outline>
</glyph>
<glyph name="breve_tilde.uc" format="2">
  <advance width="343"/>
  <anchor x="202" y="694" name="_top"/>
  <outline>
    <contour>
      <point x="129" y="991" type="curve" smooth="yes"/>
      <point x="156" y="991"/>
      <point x="175" y="939"/>
      <point x="210" y="939" type="curve" smooth="yes"/>
      <point x="236" y="939"/>
      <point x="251" y="963"/>
      <point x="266" y="1021" type="curve"/>
      <point x="255" y="1029" type="line"/>
      <point x="243" y="989"/>
      <point x="235" y="977"/>
      <point x="218" y="977" type="curve" smooth="yes"/>
      <point x="191" y="977"/>
      <point x="170" y="1028"/>
      <point x="137" y="1028" type="curve" smooth="yes"/>
      <point x="111" y="1028"/>
      <point x="96" y="1002"/>
      <point x="82" y="944" type="curve"/>
      <point x="93" y="937" type="line"/>
      <point x="103" y="975"/>
      <point x="112" y="991"/>
    </contour>
    <contour>
      <point x="161" y="761" type="curve" smooth="yes"/>
      <point x="114" y="761"/>
      <point x="90" y="803"/>
      <point x="90" y="867" type="curve" smooth="yes"/>
      <point x="90" y="873"/>
      <point x="90" y="878"/>
      <point x="90" y="885" type="curve"/>
      <point x="104" y="885" type="line"/>
      <point x="105" y="832"/>
      <point x="119" y="801"/>
      <point x="165" y="801" type="curve" smooth="yes"/>
      <point x="199" y="801"/>
      <point x="225" y="826"/>
      <point x="234" y="885" type="curve"/>
      <point x="247" y="885" type="line"/>
      <point x="239" y="796"/>
      <point x="205" y="761"/>
    </contour>
  </outline>
</glyph>
<glyph name="cedi.proportional" format="2">
  <advance width="454"/>
  <outline>
    <contour>
      <point x="235" y="10" type="curve" smooth="yes"/>
      <point x="321" y="10"/>
      <point x="384" y="85"/>
      <point x="417" y="216" type="curve"/>
      <point x="406" y="227" type="line"/>
      <point x="376" y="105"/>
      <point x="318" y="27"/>
      <point x="236" y="27" type="curve" smooth="yes"/>
      <point x="145" y="27"/>
      <point x="74" y="127"/>
      <point x="74" y="310" type="curve" smooth="yes"/>
      <point x="74" y="515"/>
      <point x="151" y="683"/>
      <point x="278" y="683" type="curve" smooth="yes"/>
      <point x="356" y="683"/>
      <point x="405" y="633"/>
      <point x="423" y="594" type="curve"/>
      <point x="429" y="604"/>
      <point x="426" y="607"/>
      <point x="405" y="627" type="curve"/>
      <point x="394" y="526" type="line"/>
      <point x="435" y="526" type="line"/>
      <point x="443" y="607" type="line"/>
      <point x="422" y="646"/>
      <point x="365" y="700"/>
      <point x="278" y="700" type="curve" smooth="yes"/>
      <point x="142" y="700"/>
      <point x="36" y="546"/>
      <point x="36" y="312" type="curve" smooth="yes"/>
      <point x="36" y="126"/>
      <point x="125" y="10"/>
    </contour>
    <contour>
      <point x="293" y="790" type="line"/>
      <point x="281" y="691" type="line"/>
      <point x="280" y="686" type="line"/>
      <point x="200" y="25" type="line"/>
      <point x="200" y="19" type="line"/>
      <point x="183" y="-120" type="line"/>
      <point x="198" y="-120" type="line"/>
      <point x="214" y="17" type="line"/>
      <point x="215" y="23" type="line"/>
      <point x="295" y="687" type="line"/>
      <point x="296" y="692" type="line"/>
      <point x="307" y="790" type="line"/>
    </contour>
  </outline>
</glyph>
<glyph name="cent.alt" format="2">
  <advance width="384"/>
  <outline>
    <contour>
      <point x="234" y="528" type="curve" smooth="yes"/>
      <point x="115" y="528"/>
      <point x="40" y="387"/>
      <point x="40" y="217" type="curve" smooth="yes"/>
      <point x="40" y="79"/>
      <point x="98" y="-11"/>
      <point x="188" y="-11" type="curve" smooth="yes"/>
      <point x="256" y="-11"/>
      <point x="302" y="46"/>
      <point x="327" y="124" type="curve"/>
      <point x="316" y="136" type="line"/>
      <point x="297" y="74"/>
      <point x="259" y="7"/>
      <point x="190" y="7" type="curve" smooth="yes"/>
      <point x="115" y="7"/>
      <point x="77" y="86"/>
      <point x="77" y="216" type="curve" smooth="yes"/>
      <point x="77" y="377"/>
      <point x="133" y="511"/>
      <point x="234" y="511" type="curve" smooth="yes"/>
      <point x="283" y="511"/>
      <point x="316" y="483"/>
      <point x="328" y="452" type="curve"/>
      <point x="331" y="462"/>
      <point x="330" y="475"/>
      <point x="313" y="485" type="curve"/>
      <point x="303" y="397" type="line"/>
      <point x="340" y="397" type="line"/>
      <point x="349" y="470" type="line"/>
      <point x="341" y="483"/>
      <point x="304" y="528"/>
    </contour>
    <contour>
      <point x="162" y="-1" type="line"/>
      <point x="147" y="-126" type="line"/>
      <point x="161" y="-126" type="line"/>
      <point x="176" y="-1" type="line"/>
    </contour>
    <contour>
      <point x="238" y="632" type="line"/>
      <point x="225" y="518" type="line"/>
      <point x="239" y="518" type="line"/>
      <point x="253" y="632" type="line"/>
    </contour>
  </outline>
</glyph>
<glyph name="circumflex.uc" format="2">
  <advance width="343"/>
  <anchor x="165" y="694" name="_top"/>
  <outline>
    <contour>
      <point x="212" y="886" type="line"/>
      <point x="269" y="755" type="line"/>
      <point x="269" y="750" type="line"/>
      <point x="260" y="750" type="line"/>
      <point x="177" y="867" type="line"/>
      <point x="202" y="867" type="line"/>
      <point x="90" y="750" type="line"/>
      <point x="79" y="750" type="line"/>
      <point x="79" y="755" type="line"/>
      <point x="170" y="886" type="line"/>
    </contour>
  </outline>
</glyph>
<glyph name="circumflex_acute" format="2">
  <advance width="350"/>
  <anchor x="140" y="558" name="_top"/>
  <outline>
    <contour>
      <point x="308" y="827" type="curve" smooth="yes"/>
      <point x="257" y="701" type="line"/>
      <point x="257" y="694" type="line"/>
      <point x="266" y="694" type="line"/>
      <point x="335" y="795" type="line" smooth="yes"/>
      <point x="348" y="813"/>
      <point x="360" y="829"/>
      <point x="360" y="848" type="curve" smooth="yes"/>
      <point x="360" y="863"/>
      <point x="352" y="873"/>
      <point x="342" y="873" type="curve" smooth="yes"/>
      <point x="327" y="873"/>
      <point x="320" y="856"/>
    </contour>
    <component base="circumflex" xOffset="-4"/>
  </outline>
</glyph>
<glyph name="circumflex_acute.uc" format="2">
  <advance width="349"/>
  <anchor x="152" y="749" name="_top"/>
  <outline>
    <contour>
      <point x="302" y="929" type="curve" smooth="yes"/>
      <point x="264" y="844" type="line"/>
      <point x="263" y="837" type="line"/>
      <point x="271" y="837" type="line"/>
      <point x="326" y="902" type="line" smooth="yes"/>
      <point x="343" y="922"/>
      <point x="355" y="936"/>
      <point x="355" y="954" type="curve" smooth="yes"/>
      <point x="355" y="967"/>
      <point x="348" y="977"/>
      <point x="337" y="977" type="curve" smooth="yes"/>
      <point x="325" y="977"/>
      <point x="316" y="963"/>
    </contour>
    <component base="circumflex.uc" xOffset="-1"/>
  </outline>
</glyph>
<glyph name="circumflex_grave.uc" format="2">
  <advance width="350"/>
  <anchor x="161" y="696" name="_top"/>
  <outline>
    <contour>
      <point x="289" y="925" type="line" smooth="yes"/>
      <point x="279" y="965"/>
      <point x="272" y="977"/>
      <point x="259" y="977" type="curve" smooth="yes"/>
      <point x="246" y="977"/>
      <point x="240" y="964"/>
      <point x="240" y="951" type="curve" smooth="yes"/>
      <point x="240" y="936"/>
      <point x="248" y="922"/>
      <point x="263" y="901" type="curve" smooth="yes"/>
      <point x="305" y="837" type="line"/>
      <point x="314" y="837" type="line"/>
      <point x="314" y="844" type="line"/>
    </contour>
    <component base="circumflex.uc"/>
  </outline>
</glyph>
<glyph name="circumflex_hook.uc" format="2">
  <advance width="350"/>
  <anchor x="147" y="694" name="_top"/>
  <outline>
    <contour>
      <point x="241" y="951" type="line"/>
      <point x="248" y="993"/>
      <point x="274" y="1018"/>
      <point x="315" y="1018" type="curve" smooth="yes"/>
      <point x="355" y="1018"/>
      <point x="377" y="995"/>
      <point x="377" y="955" type="curve" smooth="yes"/>
      <point x="377" y="913"/>
      <point x="346" y="880"/>
      <point x="294" y="875" type="curve"/>
      <point x="308" y="887" type="line"/>
      <point x="302" y="840" type="line"/>
      <point x="283" y="840" type="line"/>
      <point x="290" y="891" type="line"/>
      <point x="325" y="897"/>
      <point x="344" y="921"/>
      <point x="344" y="955" type="curve" smooth="yes"/>
      <point x="344" y="983"/>
      <point x="333" y="1000"/>
      <point x="313" y="1000" type="curve" smooth="yes"/>
      <point x="287" y="1000"/>
      <point x="275" y="981"/>
      <point x="270" y="951" type="curve"/>
    </contour>
    <component base="circumflex.uc"/>
  </outline>
</glyph>
<glyph name="dollar.altprop" format="2">
  <advance width="405"/>
  <outline>
    <contour>
      <point x="191" y="9" type="curve" smooth="yes"/>
      <point x="283" y="9"/>
      <point x="351" y="77"/>
      <point x="351" y="198" type="curve" smooth="yes"/>
      <point x="351" y="300"/>
      <point x="289" y="343"/>
      <point x="233" y="379" type="curve" smooth="yes"/>
      <point x="168" y="422"/>
      <point x="117" y="456"/>
      <point x="117" y="539" type="curve" smooth="yes"/>
      <point x="117" y="624"/>
      <point x="162" y="680"/>
      <point x="247" y="680" type="curve" smooth="yes"/>
      <point x="291" y="680"/>
      <point x="335" y="664"/>
      <point x="357" y="637" type="curve"/>
      <point x="358" y="647"/>
      <point x="355" y="653"/>
      <point x="348" y="657" type="curve"/>
      <point x="336" y="561" type="line"/>
      <point x="374" y="561" type="line"/>
      <point x="384" y="642" type="line"/>
      <point x="359" y="670"/>
      <point x="313" y="698"/>
      <point x="250" y="698" type="curve" smooth="yes"/>
      <point x="151" y="698"/>
      <point x="88" y="633"/>
      <point x="88" y="530" type="curve" smooth="yes"/>
      <point x="88" y="429"/>
      <point x="146" y="390"/>
      <point x="201" y="353" type="curve" smooth="yes"/>
      <point x="262" y="310"/>
      <point x="321" y="281"/>
      <point x="321" y="190" type="curve" smooth="yes"/>
      <point x="321" y="86"/>
      <point x="270" y="27"/>
      <point x="193" y="27" type="curve" smooth="yes"/>
      <point x="131" y="27"/>
      <point x="76" y="50"/>
      <point x="48" y="96" type="curve"/>
      <point x="47" y="87"/>
      <point x="50" y="77"/>
      <point x="53" y="68" type="curve"/>
      <point x="67" y="179" type="line"/>
      <point x="27" y="179" type="line"/>
      <point x="17" y="98" type="line"/>
      <point x="42" y="57"/>
      <point x="103" y="9"/>
    </contour>
    <contour>
      <point x="150" y="-120" type="line"/>
      <point x="164" y="-120" type="line"/>
      <point x="181" y="19" type="line"/>
      <point x="167" y="19" type="line"/>
    </contour>
    <contour>
      <point x="247" y="689" type="line"/>
      <point x="261" y="688" type="line"/>
      <point x="274" y="787" type="line"/>
      <point x="259" y="787" type="line"/>
    </contour>
  </outline>
</glyph>
<glyph name="eight.linprop" format="2">
  <advance width="398"/>
  <outline>
    <contour>
      <point x="224" y="385" type="curve" smooth="yes"/>
      <point x="164" y="385"/>
      <point x="123" y="438"/>
      <point x="123" y="534" type="curve" smooth="yes"/>
      <point x="123" y="548"/>
      <point x="123" y="560"/>
      <point x="125" y="572" type="curve" smooth="yes"/>
      <point x="134" y="651"/>
      <point x="175" y="702"/>
      <point x="236" y="702" type="curve" smooth="yes"/>
      <point x="298" y="702"/>
      <point x="338" y="642"/>
      <point x="338" y="551" type="curve" smooth="yes"/>
      <point x="338" y="536"/>
      <point x="337" y="520"/>
      <point x="335" y="507" type="curve" smooth="yes"/>
      <point x="324" y="430"/>
      <point x="282" y="385"/>
    </contour>
    <contour>
      <point x="189" y="8" type="curve" smooth="yes"/>
      <point x="110" y="8"/>
      <point x="61" y="82"/>
      <point x="61" y="188" type="curve" smooth="yes"/>
      <point x="61" y="200"/>
      <point x="62" y="212"/>
      <point x="63" y="223" type="curve" smooth="yes"/>
      <point x="73" y="309"/>
      <point x="121" y="367"/>
      <point x="195" y="367" type="curve" smooth="yes"/>
      <point x="277" y="367"/>
      <point x="320" y="295"/>
      <point x="320" y="199" type="curve" smooth="yes"/>
      <point x="320" y="184"/>
      <point x="319" y="169"/>
      <point x="317" y="153" type="curve" smooth="yes"/>
      <point x="305" y="72"/>
      <point x="261" y="8"/>
    </contour>
    <contour>
      <point x="188" y="-10" type="curve" smooth="yes"/>
      <point x="288" y="-10"/>
      <point x="358" y="81"/>
      <point x="358" y="197" type="curve" smooth="yes"/>
      <point x="358" y="280"/>
      <point x="313" y="354"/>
      <point x="242" y="376" type="curve"/>
      <point x="248" y="367" type="line"/>
      <point x="250" y="378" type="line"/>
      <point x="242" y="370" type="line"/>
      <point x="319" y="380"/>
      <point x="373" y="453"/>
      <point x="373" y="550" type="curve" smooth="yes"/>
      <point x="373" y="648"/>
      <point x="313" y="720"/>
      <point x="237" y="720" type="curve" smooth="yes"/>
      <point x="148" y="720"/>
      <point x="87" y="638"/>
      <point x="87" y="536" type="curve" smooth="yes"/>
      <point x="87" y="456"/>
      <point x="128" y="398"/>
      <point x="180" y="377" type="curve"/>
      <point x="175" y="389" type="line"/>
      <point x="173" y="375" type="line"/>
      <point x="181" y="383" type="line"/>
      <point x="84" y="376"/>
      <point x="23" y="291"/>
      <point x="23" y="188" type="curve" smooth="yes"/>
      <point x="23" y="74"/>
      <point x="95" y="-10"/>
    </contour>
  </outline>
</glyph>
<glyph name="eight.midprop" format="2">
  <advance width="398"/>
  <outline>
    <contour>
      <point x="191" y="8" type="curve" smooth="yes"/>
      <point x="110" y="8"/>
      <point x="63" y="79"/>
      <point x="63" y="186" type="curve" smooth="yes"/>
      <point x="63" y="200"/>
      <point x="64" y="213"/>
      <point x="65" y="225" type="curve" smooth="yes"/>
      <point x="76" y="311"/>
      <point x="128" y="367"/>
      <point x="197" y="367" type="curve" smooth="yes"/>
      <point x="278" y="367"/>
      <point x="323" y="300"/>
      <point x="323" y="199" type="curve" smooth="yes"/>
      <point x="323" y="183"/>
      <point x="322" y="169"/>
      <point x="320" y="154" type="curve" smooth="yes"/>
      <point x="308" y="66"/>
      <point x="263" y="8"/>
    </contour>
    <contour>
      <point x="226" y="385" type="curve" smooth="yes"/>
      <point x="172" y="385"/>
      <point x="125" y="441"/>
      <point x="125" y="537" type="curve" smooth="yes"/>
      <point x="125" y="551"/>
      <point x="126" y="566"/>
      <point x="127" y="578" type="curve" smooth="yes"/>
      <point x="138" y="653"/>
      <point x="178" y="702"/>
      <point x="238" y="702" type="curve" smooth="yes"/>
      <point x="302" y="702"/>
      <point x="341" y="642"/>
      <point x="341" y="548" type="curve" smooth="yes"/>
      <point x="341" y="536"/>
      <point x="340" y="523"/>
      <point x="338" y="512" type="curve" smooth="yes"/>
      <point x="329" y="433"/>
      <point x="284" y="385"/>
    </contour>
    <contour>
      <point x="191" y="-10" type="curve" smooth="yes"/>
      <point x="292" y="-10"/>
      <point x="361" y="81"/>
      <point x="361" y="197" type="curve" smooth="yes"/>
      <point x="361" y="277"/>
      <point x="317" y="355"/>
      <point x="243" y="378" type="curve"/>
      <point x="248" y="368" type="line"/>
      <point x="251" y="379" type="line"/>
      <point x="241" y="372" type="line"/>
      <point x="319" y="379"/>
      <point x="376" y="456"/>
      <point x="376" y="550" type="curve" smooth="yes"/>
      <point x="376" y="648"/>
      <point x="318" y="720"/>
      <point x="239" y="720" type="curve" smooth="yes"/>
      <point x="149" y="720"/>
      <point x="89" y="640"/>
      <point x="89" y="541" type="curve" smooth="yes"/>
      <point x="89" y="469"/>
      <point x="126" y="400"/>
      <point x="188" y="379" type="curve"/>
      <point x="183" y="387" type="line"/>
      <point x="181" y="378" type="line"/>
      <point x="189" y="384" type="line"/>
      <point x="89" y="380"/>
      <point x="25" y="288"/>
      <point x="25" y="187" type="curve" smooth="yes"/>
      <point x="25" y="70"/>
      <point x="96" y="-10"/>
    </contour>
  </outline>
</glyph>
<glyph name="f_f.short" format="2">
  <advance width="376"/>
  <outline>
    <contour>
      <point x="194" y="518" type="line"/>
      <point x="192" y="501" type="line"/>
      <point x="384" y="501" type="line"/>
      <point x="387" y="518" type="line"/>
    </contour>
    <contour>
      <point x="239" y="-223" type="line"/>
      <point x="324" y="608" type="line" smooth="yes"/>
      <point x="333" y="700"/>
      <point x="356" y="741"/>
      <point x="398" y="741" type="curve" smooth="yes"/>
      <point x="417" y="741"/>
      <point x="433" y="733"/>
      <point x="442" y="727" type="curve"/>
      <point x="445" y="746" type="line"/>
      <point x="432" y="754"/>
      <point x="415" y="758"/>
      <point x="399" y="758" type="curve" smooth="yes"/>
      <point x="342" y="758"/>
      <point x="299" y="708"/>
      <point x="289" y="611" type="curve" smooth="yes"/>
      <point x="210" y="-223" type="line"/>
    </contour>
    <contour>
      <point x="41" y="518" type="line"/>
      <point x="39" y="501" type="line"/>
      <point x="233" y="501" type="line"/>
      <point x="236" y="518" type="line"/>
    </contour>
    <contour>
      <point x="54" y="-223" type="line"/>
      <point x="138" y="595" type="line" smooth="yes"/>
      <point x="147" y="683"/>
      <point x="171" y="726"/>
      <point x="221" y="726" type="curve" smooth="yes"/>
      <point x="243" y="726"/>
      <point x="258" y="716"/>
      <point x="266" y="709" type="curve"/>
      <point x="268" y="730" type="line"/>
      <point x="257" y="740"/>
      <point x="240" y="744"/>
      <point x="220" y="744" type="curve" smooth="yes"/>
      <point x="158" y="744"/>
      <point x="113" y="689"/>
      <point x="103" y="594" type="curve" smooth="yes"/>
      <point x="25" y="-223" type="line"/>
    </contour>
  </outline>
</glyph>
<glyph name="f_f_h" format="2">
  <advance width="746"/>
  <outline>
    <contour>
      <point x="41" y="518" type="line"/>
      <point x="39" y="501" type="line"/>
      <point x="207" y="501" type="line"/>
      <point x="210" y="518" type="line"/>
    </contour>
    <contour>
      <point x="193" y="518" type="line"/>
      <point x="191" y="501" type="line"/>
      <point x="394" y="501" type="line"/>
      <point x="396" y="518" type="line"/>
    </contour>
    <contour>
      <point x="221" y="726" type="curve" smooth="yes"/>
      <point x="243" y="726"/>
      <point x="259" y="716"/>
      <point x="267" y="709" type="curve"/>
      <point x="269" y="730" type="line"/>
      <point x="257" y="740"/>
      <point x="240" y="744"/>
      <point x="220" y="744" type="curve" smooth="yes"/>
      <point x="158" y="744"/>
      <point x="113" y="689"/>
      <point x="103" y="594" type="curve" smooth="yes"/>
      <point x="25" y="-223" type="line"/>
      <point x="54" y="-223" type="line"/>
      <point x="138" y="595" type="line" smooth="yes"/>
      <point x="147" y="683"/>
      <point x="171" y="726"/>
    </contour>
    <contour>
      <point x="438" y="0" type="line"/>
      <point x="530" y="750" type="line"/>
      <point x="441" y="750" type="line"/>
      <point x="492" y="726" type="line"/>
      <point x="404" y="0" type="line"/>
    </contour>
    <contour>
      <point x="636" y="194" type="line" smooth="yes"/>
      <point x="629" y="136"/>
      <point x="624" y="91"/>
      <point x="624" y="62" type="curve" smooth="yes"/>
      <point x="624" y="13"/>
      <point x="646" y="-7"/>
      <point x="677" y="-7" type="curve" smooth="yes"/>
      <point x="694" y="-7"/>
      <point x="713" y="2"/>
      <point x="721" y="11" type="curve"/>
      <point x="724" y="27" type="line"/>
      <point x="717" y="23"/>
      <point x="700" y="13"/>
      <point x="685" y="13" type="curve" smooth="yes"/>
      <point x="665" y="13"/>
      <point x="657" y="25"/>
      <point x="657" y="57" type="curve" smooth="yes"/>
      <point x="657" y="83"/>
      <point x="663" y="131"/>
      <point x="668" y="175" type="curve" smooth="yes"/>
      <point x="690" y="326" type="line" smooth="yes"/>
      <point x="694" y="360"/>
      <point x="698" y="394"/>
      <point x="698" y="426" type="curve" smooth="yes"/>
      <point x="698" y="486"/>
      <point x="672" y="528"/>
      <point x="623" y="528" type="curve" smooth="yes"/>
      <point x="560" y="528"/>
      <point x="509" y="445"/>
      <point x="460" y="316" type="curve"/>
      <point x="467" y="302" type="line"/>
      <point x="516" y="425"/>
      <point x="562" y="507"/>
      <point x="616" y="507" type="curve" smooth="yes"/>
      <point x="649" y="507"/>
      <point x="664" y="482"/>
      <point x="664" y="429" type="curve" smooth="yes"/>
      <point x="664" y="395"/>
      <point x="660" y="364"/>
      <point x="656" y="329" type="curve" smooth="yes"/>
    </contour>
    <contour>
      <point x="422" y="741" type="curve" smooth="yes"/>
      <point x="459" y="741"/>
      <point x="488" y="724"/>
      <point x="505" y="707" type="curve"/>
      <point x="517" y="728" type="line"/>
      <point x="501" y="744"/>
      <point x="465" y="758"/>
      <point x="423" y="758" type="curve" smooth="yes"/>
      <point x="346" y="758"/>
      <point x="299" y="703"/>
      <point x="289" y="606" type="curve" smooth="yes"/>
      <point x="212" y="-193" type="line"/>
      <point x="241" y="-193" type="line"/>
      <point x="323" y="603" type="line" smooth="yes"/>
      <point x="333" y="694"/>
      <point x="360" y="741"/>
    </contour>
  </outline>
</glyph>
<glyph name="f_h" format="2">
  <advance width="560"/>
  <outline>
    <contour>
      <point x="41" y="518" type="line"/>
      <point x="39" y="501" type="line"/>
      <point x="211" y="501" type="line"/>
      <point x="214" y="518" type="line"/>
    </contour>
    <contour>
      <point x="254" y="0" type="line"/>
      <point x="345" y="750" type="line"/>
      <point x="251" y="750" type="line"/>
      <point x="308" y="729" type="line"/>
      <point x="219" y="0" type="line"/>
    </contour>
    <contour>
      <point x="451" y="194" type="line" smooth="yes"/>
      <point x="444" y="136"/>
      <point x="439" y="91"/>
      <point x="439" y="62" type="curve" smooth="yes"/>
      <point x="439" y="13"/>
      <point x="461" y="-7"/>
      <point x="492" y="-7" type="curve" smooth="yes"/>
      <point x="510" y="-7"/>
      <point x="528" y="2"/>
      <point x="536" y="11" type="curve"/>
      <point x="539" y="27" type="line"/>
      <point x="532" y="23"/>
      <point x="515" y="13"/>
      <point x="500" y="13" type="curve" smooth="yes"/>
      <point x="481" y="13"/>
      <point x="473" y="25"/>
      <point x="473" y="57" type="curve" smooth="yes"/>
      <point x="473" y="83"/>
      <point x="478" y="131"/>
      <point x="484" y="175" type="curve" smooth="yes"/>
      <point x="505" y="326" type="line" smooth="yes"/>
      <point x="510" y="360"/>
      <point x="513" y="394"/>
      <point x="513" y="426" type="curve" smooth="yes"/>
      <point x="513" y="486"/>
      <point x="487" y="528"/>
      <point x="438" y="528" type="curve" smooth="yes"/>
      <point x="375" y="528"/>
      <point x="324" y="445"/>
      <point x="276" y="316" type="curve"/>
      <point x="282" y="302" type="line"/>
      <point x="331" y="425"/>
      <point x="377" y="507"/>
      <point x="432" y="507" type="curve" smooth="yes"/>
      <point x="465" y="507"/>
      <point x="479" y="482"/>
      <point x="479" y="429" type="curve" smooth="yes"/>
      <point x="479" y="395"/>
      <point x="476" y="364"/>
      <point x="471" y="329" type="curve" smooth="yes"/>
    </contour>
    <contour>
      <point x="237" y="741" type="curve" smooth="yes"/>
      <point x="274" y="741"/>
      <point x="304" y="724"/>
      <point x="321" y="707" type="curve"/>
      <point x="332" y="728" type="line"/>
      <point x="317" y="744"/>
      <point x="280" y="758"/>
      <point x="238" y="758" type="curve" smooth="yes"/>
      <point x="161" y="758"/>
      <point x="114" y="703"/>
      <point x="105" y="606" type="curve" smooth="yes"/>
      <point x="25" y="-223" type="line"/>
      <point x="54" y="-223" type="line"/>
      <point x="139" y="603" type="line" smooth="yes"/>
      <point x="148" y="694"/>
      <point x="175" y="741"/>
    </contour>
  </outline>
</glyph>
<glyph name="f_j" format="2">
  <advance width="345"/>
  <outline>
    <contour>
      <point x="316" y="658" type="curve" smooth="yes"/>
      <point x="330" y="658"/>
      <point x="341" y="672"/>
      <point x="341" y="694" type="curve" smooth="yes"/>
      <point x="341" y="716"/>
      <point x="330" y="729"/>
      <point x="316" y="729" type="curve" smooth="yes"/>
      <point x="301" y="729"/>
      <point x="289" y="716"/>
      <point x="289" y="694" type="curve" smooth="yes"/>
      <point x="289" y="672"/>
      <point x="301" y="658"/>
    </contour>
    <contour>
      <point x="214" y="741" type="curve" smooth="yes"/>
      <point x="233" y="741"/>
      <point x="248" y="731"/>
      <point x="256" y="726" type="curve"/>
      <point x="258" y="747" type="line"/>
      <point x="247" y="754"/>
      <point x="230" y="758"/>
      <point x="212" y="758" type="curve" smooth="yes"/>
      <point x="158" y="758"/>
      <point x="116" y="716"/>
      <point x="107" y="627" type="curve" smooth="yes"/>
      <point x="25" y="-223" type="line"/>
      <point x="54" y="-223" type="line"/>
      <point x="142" y="624" type="line" smooth="yes"/>
      <point x="150" y="707"/>
      <point x="172" y="741"/>
    </contour>
    <contour>
      <point x="213" y="-104" type="line" smooth="yes"/>
      <point x="205" y="-180"/>
      <point x="187" y="-215"/>
      <point x="157" y="-215" type="curve" smooth="yes"/>
      <point x="137" y="-215"/>
      <point x="123" y="-209"/>
      <point x="114" y="-202" type="curve"/>
      <point x="112" y="-220" type="line"/>
      <point x="119" y="-226"/>
      <point x="136" y="-233"/>
      <point x="157" y="-233" type="curve" smooth="yes"/>
      <point x="199" y="-233"/>
      <point x="236" y="-205"/>
      <point x="248" y="-101" type="curve" smooth="yes"/>
      <point x="317" y="518" type="line"/>
      <point x="41" y="518" type="line"/>
      <point x="39" y="501" type="line"/>
      <point x="230" y="501" type="line" smooth="yes"/>
      <point x="266" y="501"/>
      <point x="278" y="491"/>
      <point x="276" y="471" type="curve" smooth="yes"/>
    </contour>
  </outline>
</glyph>
<glyph name="five.linprop" format="2">
  <advance width="384"/>
  <outline>
    <contour>
      <point x="175" y="-10" type="curve" smooth="yes"/>
      <point x="285" y="-10"/>
      <point x="347" y="121"/>
      <point x="347" y="260" type="curve" smooth="yes"/>
      <point x="347" y="379"/>
      <point x="294" y="468"/>
      <point x="208" y="468" type="curve" smooth="yes"/>
      <point x="157" y="468"/>
      <point x="108" y="434"/>
      <point x="75" y="362" type="curve"/>
      <point x="85" y="376" type="line"/>
      <point x="121" y="686" type="line"/>
      <point x="112" y="667" type="line"/>
      <point x="347" y="667" type="line"/>
      <point x="360" y="710" type="line"/>
      <point x="110" y="710" type="line"/>
      <point x="65" y="342" type="line"/>
      <point x="77" y="342" type="line"/>
      <point x="113" y="415"/>
      <point x="152" y="449"/>
      <point x="205" y="449" type="curve" smooth="yes"/>
      <point x="271" y="449"/>
      <point x="310" y="369"/>
      <point x="310" y="260" type="curve" smooth="yes"/>
      <point x="310" y="125"/>
      <point x="262" y="8"/>
      <point x="175" y="8" type="curve" smooth="yes"/>
      <point x="91" y="8"/>
      <point x="46" y="72"/>
      <point x="26" y="163" type="curve"/>
      <point x="14" y="152" type="line"/>
      <point x="36" y="55"/>
      <point x="87" y="-10"/>
    </contour>
  </outline>
</glyph>
<glyph name="four.linprop" format="2">
  <advance width="403"/>
  <outline>
    <contour>
      <point x="322" y="710" type="line"/>
      <point x="306" y="682" type="line"/>
      <point x="229" y="43" type="line" smooth="yes"/>
      <point x="226" y="21"/>
      <point x="198" y="16"/>
      <point x="154" y="16" type="curve" smooth="yes"/>
      <point x="138" y="16" type="line"/>
      <point x="135" y="0" type="line"/>
      <point x="336" y="0" type="line"/>
      <point x="338" y="16" type="line"/>
      <point x="331" y="16" type="line" smooth="yes"/>
      <point x="288" y="16"/>
      <point x="262" y="21"/>
      <point x="264" y="43" type="curve" smooth="yes"/>
      <point x="344" y="710" type="line"/>
    </contour>
    <contour>
      <point x="9" y="212" type="line"/>
      <point x="368" y="212" type="line"/>
      <point x="373" y="244" type="line"/>
      <point x="28" y="244" type="line"/>
      <point x="29" y="230" type="line"/>
      <point x="327" y="700" type="line"/>
      <point x="329" y="710" type="line"/>
      <point x="314" y="710" type="line"/>
      <point x="12" y="232" type="line"/>
    </contour>
  </outline>
</glyph>
<glyph name="franc.proportional" format="2">
  <advance width="394"/>
  <outline>
    <contour>
      <point x="6" y="0" type="line"/>
      <point x="171" y="0" type="line"/>
      <point x="173" y="15" type="line"/>
      <point x="161" y="15" type="line" smooth="yes"/>
      <point x="135" y="15"/>
      <point x="103" y="17"/>
      <point x="106" y="41" type="curve" smooth="yes"/>
      <point x="184" y="692" type="line"/>
      <point x="303" y="692" type="line" smooth="yes"/>
      <point x="361" y="692"/>
      <point x="377" y="685"/>
      <point x="377" y="658" type="curve" smooth="yes"/>
      <point x="373" y="557" type="line"/>
      <point x="386" y="557" type="line"/>
      <point x="405" y="710" type="line"/>
      <point x="92" y="710" type="line"/>
      <point x="90" y="695" type="line"/>
      <point x="97" y="695" type="line" smooth="yes"/>
      <point x="127" y="695"/>
      <point x="149" y="689"/>
      <point x="146" y="667" type="curve" smooth="yes"/>
      <point x="71" y="42" type="line" smooth="yes"/>
      <point x="68" y="21"/>
      <point x="45" y="15"/>
      <point x="16" y="15" type="curve" smooth="yes"/>
      <point x="8" y="15" type="line"/>
    </contour>
    <contour>
      <point x="140" y="398" type="curve"/>
      <point x="138" y="382" type="line"/>
      <point x="228" y="380"/>
      <point x="269" y="379"/>
      <point x="309" y="371" type="curve"/>
      <point x="314" y="408" type="line"/>
      <point x="272" y="401"/>
      <point x="230" y="400"/>
    </contour>
    <contour>
      <point x="33" y="219" type="line"/>
      <point x="32" y="202" type="line"/>
      <point x="230" y="202" type="line"/>
      <point x="232" y="219" type="line"/>
    </contour>
  </outline>
</glyph>
<glyph name="grave.uc" format="2">
  <advance width="343"/>
  <anchor x="182" y="694" name="_top"/>
  <outline>
    <contour>
      <point x="226" y="766" type="line"/>
      <point x="165" y="837" type="line" smooth="yes"/>
      <point x="147" y="856"/>
      <point x="137" y="867"/>
      <point x="137" y="882" type="curve" smooth="yes"/>
      <point x="137" y="895"/>
      <point x="144" y="907"/>
      <point x="156" y="907" type="curve" smooth="yes"/>
      <point x="168" y="907"/>
      <point x="175" y="895"/>
      <point x="188" y="868" type="curve" smooth="yes"/>
      <point x="234" y="772" type="line"/>
      <point x="234" y="766" type="line"/>
    </contour>
  </outline>
</glyph>
<glyph name="heart" format="2">
  <advance width="618"/>
  <outline>
    <contour>
      <point x="317" y="-10" type="line"/>
      <point x="333" y="-10" type="line"/>
      <point x="495" y="273" type="line" smooth="yes"/>
      <point x="554" y="375"/>
      <point x="586" y="437"/>
      <point x="586" y="535" type="curve" smooth="yes"/>
      <point x="586" y="632"/>
      <point x="541" y="710"/>
      <point x="462" y="710" type="curve" smooth="yes"/>
      <point x="397" y="710"/>
      <point x="352" y="657"/>
      <point x="326" y="569" type="curve"/>
      <point x="299" y="657"/>
      <point x="253" y="710"/>
      <point x="190" y="710" type="curve" smooth="yes"/>
      <point x="110" y="710"/>
      <point x="65" y="632"/>
      <point x="65" y="535" type="curve" smooth="yes"/>
      <point x="65" y="437"/>
      <point x="97" y="375"/>
      <point x="155" y="273" type="curve" smooth="yes"/>
    </contour>
  </outline>
</glyph>
<glyph name="heartsuitwhite" format="2">
  <advance width="618"/>
  <outline>
    <contour>
      <point x="80" y="534" type="curve" smooth="yes"/>
      <point x="80" y="622"/>
      <point x="120" y="691"/>
      <point x="189" y="691" type="curve" smooth="yes"/>
      <point x="257" y="691"/>
      <point x="301" y="614"/>
      <point x="323" y="534" type="curve"/>
      <point x="329" y="534" type="line"/>
      <point x="349" y="614"/>
      <point x="392" y="691"/>
      <point x="461" y="691" type="curve" smooth="yes"/>
      <point x="531" y="691"/>
      <point x="571" y="622"/>
      <point x="571" y="534" type="curve" smooth="yes"/>
      <point x="571" y="443"/>
      <point x="537" y="377"/>
      <point x="479" y="275" type="curve" smooth="yes"/>
      <point x="321" y="2" type="line"/>
      <point x="329" y="2" type="line"/>
      <point x="163" y="292" type="line" smooth="yes"/>
      <point x="110" y="385"/>
      <point x="80" y="449"/>
    </contour>
    <contour>
      <point x="65" y="535" type="curve" smooth="yes"/>
      <point x="65" y="437"/>
      <point x="97" y="375"/>
      <point x="155" y="273" type="curve" smooth="yes"/>
      <point x="317" y="-10" type="line"/>
      <point x="333" y="-10" type="line"/>
      <point x="495" y="273" type="line" smooth="yes"/>
      <point x="554" y="375"/>
      <point x="586" y="437"/>
      <point x="586" y="535" type="curve" smooth="yes"/>
      <point x="586" y="632"/>
      <point x="541" y="710"/>
      <point x="462" y="710" type="curve" smooth="yes"/>
      <point x="397" y="710"/>
      <point x="352" y="657"/>
      <point x="326" y="569" type="curve"/>
      <point x="299" y="657"/>
      <point x="253" y="710"/>
      <point x="190" y="710" type="curve" smooth="yes"/>
      <point x="110" y="710"/>
      <point x="65" y="632"/>
    </contour>
  </outline>
</glyph>
<glyph name="minus.sub" format="2">
  <advance width="260"/>
  <outline>
    <contour>
      <point x="187" y="88" type="line"/>
      <point x="6" y="88" type="line"/>
      <point x="4" y="73" type="line"/>
      <point x="185" y="73" type="line"/>
    </contour>
  </outline>
</glyph>
<glyph name="minus.sup" format="2">
  <advance width="261"/>
  <outline>
    <contour>
      <point x="250" y="568" type="line"/>
      <point x="68" y="568" type="line"/>
      <point x="67" y="554" type="line"/>
      <point x="248" y="554" type="line"/>
    </contour>
  </outline>
</glyph>
<glyph name="nine.oldprop" format="2">
  <advance width="390"/>
  <outline>
    <contour>
      <point x="22" y="-136" type="line"/>
      <point x="201" y="-129"/>
      <point x="302" y="41"/>
      <point x="321" y="246" type="curve" smooth="yes"/>
      <point x="323" y="271"/>
      <point x="325" y="295"/>
      <point x="325" y="320" type="curve" smooth="yes"/>
      <point x="325" y="459"/>
      <point x="276" y="541"/>
      <point x="202" y="541" type="curve" smooth="yes"/>
      <point x="134" y="541"/>
      <point x="89" y="471"/>
      <point x="77" y="380" type="curve" smooth="yes"/>
      <point x="74" y="362"/>
      <point x="73" y="344"/>
      <point x="73" y="324" type="curve" smooth="yes"/>
      <point x="73" y="210"/>
      <point x="117" y="136"/>
      <point x="183" y="136" type="curve" smooth="yes"/>
      <point x="242" y="136"/>
      <point x="292" y="189"/>
      <point x="328" y="288" type="curve"/>
      <point x="332" y="267" type="line"/>
      <point x="294" y="160"/>
      <point x="238" y="118"/>
      <point x="180" y="118" type="curve" smooth="yes"/>
      <point x="99" y="118"/>
      <point x="35" y="200"/>
      <point x="35" y="324" type="curve" smooth="yes"/>
      <point x="35" y="438"/>
      <point x="97" y="559"/>
      <point x="203" y="559" type="curve" smooth="yes"/>
      <point x="301" y="559"/>
      <point x="362" y="458"/>
      <point x="362" y="313" type="curve" smooth="yes"/>
      <point x="362" y="113"/>
      <point x="258" y="-145"/>
      <point x="22" y="-153" type="curve"/>
    </contour>
  </outline>
</glyph>
<glyph name="one.lintab" format="2">
  <advance width="384"/>
  <outline>
    <contour>
      <point x="199" y="51" type="curve" smooth="yes"/>
      <point x="278" y="710" type="line"/>
      <point x="259" y="710" type="line"/>
      <point x="228" y="657"/>
      <point x="177" y="633"/>
      <point x="113" y="633" type="curve"/>
      <point x="109" y="600" type="line"/>
      <point x="152" y="599"/>
      <point x="223" y="632"/>
      <point x="245" y="680" type="curve"/>
      <point x="238" y="678" type="line"/>
      <point x="164" y="51" type="line" smooth="yes"/>
      <point x="159" y="23"/>
      <point x="136" y="16"/>
      <point x="69" y="16" type="curve" smooth="yes"/>
      <point x="47" y="16" type="line"/>
      <point x="44" y="0" type="line"/>
      <point x="301" y="0" type="line"/>
      <point x="304" y="16" type="line"/>
      <point x="291" y="16" type="line" smooth="yes"/>
      <point x="220" y="16"/>
      <point x="195" y="23"/>
    </contour>
  </outline>
</glyph>
<glyph name="one.oldtab" format="2">
  <advance width="384"/>
  <outline>
    <contour>
      <point x="214" y="51" type="curve" smooth="yes"/>
      <point x="274" y="548" type="line"/>
      <point x="254" y="548" type="line"/>
      <point x="223" y="495"/>
      <point x="172" y="471"/>
      <point x="108" y="471" type="curve"/>
      <point x="104" y="438" type="line"/>
      <point x="147" y="437"/>
      <point x="218" y="470"/>
      <point x="240" y="518" type="curve"/>
      <point x="234" y="514" type="line"/>
      <point x="179" y="51" type="line" smooth="yes"/>
      <point x="175" y="23"/>
      <point x="151" y="16"/>
      <point x="85" y="16" type="curve" smooth="yes"/>
      <point x="62" y="16" type="line"/>
      <point x="59" y="0" type="line"/>
      <point x="316" y="0" type="line"/>
      <point x="319" y="16" type="line"/>
      <point x="306" y="16" type="line" smooth="yes"/>
      <point x="235" y="16"/>
      <point x="211" y="23"/>
    </contour>
  </outline>
</glyph>
<glyph name="parenleft.uc" format="2">
  <advance width="208"/>
  <outline>
    <contour>
      <point x="128" y="-36" type="curve"/>
      <point x="142" y="-36" type="line"/>
      <point x="143" y="-33" type="line"/>
      <point x="99" y="41"/>
      <point x="67" y="144"/>
      <point x="67" y="283" type="curve" smooth="yes"/>
      <point x="67" y="492"/>
      <point x="145" y="648"/>
      <point x="236" y="743" type="curve"/>
      <point x="237" y="746" type="line"/>
      <point x="221" y="746" type="line"/>
      <point x="128" y="659"/>
      <point x="36" y="501"/>
      <point x="36" y="283" type="curve" smooth="yes"/>
      <point x="36" y="148"/>
      <point x="78" y="36"/>
    </contour>
  </outline>
</glyph>
<glyph name="plus.sub" format="2">
  <advance width="260"/>
  <outline>
    <contour>
      <point x="106" y="219" type="line"/>
      <point x="73" y="-58" type="line"/>
      <point x="84" y="-58" type="line"/>
      <point x="118" y="219" type="line"/>
    </contour>
    <contour>
      <point x="187" y="88" type="line"/>
      <point x="6" y="88" type="line"/>
      <point x="4" y="73" type="line"/>
      <point x="185" y="73" type="line"/>
    </contour>
  </outline>
</glyph>
<glyph name="ruble.proportional" format="2">
  <advance width="422"/>
  <outline>
    <contour>
      <point x="55" y="369" type="line"/>
      <point x="237" y="369" type="line" smooth="yes"/>
      <point x="333" y="369"/>
      <point x="378" y="447"/>
      <point x="378" y="548" type="curve" smooth="yes"/>
      <point x="378" y="639"/>
      <point x="339" y="693"/>
      <point x="257" y="693" type="curve" smooth="yes"/>
      <point x="189" y="693" type="line"/>
      <point x="109" y="27" type="line"/>
      <point x="108" y="19"/>
      <point x="138" y="15"/>
      <point x="161" y="15" type="curve" smooth="yes"/>
      <point x="178" y="15" type="line"/>
      <point x="176" y="0" type="line"/>
      <point x="10" y="0" type="line"/>
      <point x="13" y="15" type="line"/>
      <point x="20" y="15" type="line" smooth="yes"/>
      <point x="49" y="15"/>
      <point x="73" y="21"/>
      <point x="74" y="42" type="curve" smooth="yes"/>
      <point x="150" y="668" type="line" smooth="yes"/>
      <point x="153" y="689"/>
      <point x="130" y="695"/>
      <point x="101" y="695" type="curve" smooth="yes"/>
      <point x="94" y="695" type="line"/>
      <point x="97" y="710" type="line"/>
      <point x="260" y="710" type="line" smooth="yes"/>
      <point x="362" y="710"/>
      <point x="415" y="648"/>
      <point x="415" y="547" type="curve" smooth="yes"/>
      <point x="415" y="448"/>
      <point x="363" y="352"/>
      <point x="236" y="352" type="curve" smooth="yes"/>
      <point x="53" y="352" type="line"/>
    </contour>
    <contour>
      <point x="269" y="197" type="line"/>
      <point x="34" y="197" type="line"/>
      <point x="37" y="215" type="line"/>
      <point x="271" y="215" type="line"/>
    </contour>
  </outline>
</glyph>
<glyph name="rupeeIndian" format="2">
  <advance width="384"/>
  <outline>
    <contour>
      <point x="61" y="508" type="line"/>
      <point x="59" y="490" type="line"/>
      <point x="376" y="490" type="line"/>
      <point x="378" y="508" type="line"/>
    </contour>
    <contour>
      <point x="51" y="284" type="line"/>
      <point x="79" y="284" type="line" smooth="yes"/>
      <point x="203" y="284"/>
      <point x="288" y="363"/>
      <point x="288" y="510" type="curve" smooth="yes"/>
      <point x="288" y="603"/>
      <point x="253" y="679"/>
      <point x="175" y="697" type="curve"/>
      <point x="160" y="693" type="line"/>
      <point x="397" y="693" type="line"/>
      <point x="399" y="710" type="line"/>
      <point x="85" y="710" type="line"/>
      <point x="83" y="693" type="line"/>
      <point x="128" y="693" type="line" smooth="yes"/>
      <point x="213" y="693"/>
      <point x="250" y="621"/>
      <point x="250" y="507" type="curve" smooth="yes"/>
      <point x="250" y="382"/>
      <point x="192" y="301"/>
      <point x="84" y="301" type="curve" smooth="yes"/>
      <point x="36" y="301" type="line"/>
      <point x="35" y="288" type="line"/>
      <point x="206" y="0" type="line"/>
      <point x="274" y="0" type="line"/>
      <point x="276" y="15" type="line"/>
      <point x="268" y="15" type="line" smooth="yes"/>
      <point x="247" y="15"/>
      <point x="235" y="28"/>
      <point x="213" y="63" type="curve" smooth="yes"/>
      <point x="75" y="293" type="line"/>
    </contour>
  </outline>
</glyph>
<glyph name="rupeeIndian.proportional" format="2">
  <advance width="415"/>
  <outline>
    <contour>
      <point x="237" y="0" type="line"/>
      <point x="305" y="0" type="line"/>
      <point x="308" y="15" type="line"/>
      <point x="299" y="15" type="line" smooth="yes"/>
      <point x="277" y="15"/>
      <point x="266" y="28"/>
      <point x="243" y="62" type="curve" smooth="yes"/>
      <point x="93" y="293" type="line"/>
      <point x="64" y="284" type="line"/>
      <point x="107" y="284" type="line" smooth="yes"/>
      <point x="236" y="284"/>
      <point x="315" y="375"/>
      <point x="315" y="511" type="curve" smooth="yes"/>
      <point x="315" y="603"/>
      <point x="273" y="676"/>
      <point x="188" y="697" type="curve"/>
      <point x="184" y="693" type="line"/>
      <point x="423" y="693" type="line"/>
      <point x="425" y="710" type="line"/>
      <point x="99" y="710" type="line"/>
      <point x="97" y="693" type="line"/>
      <point x="137" y="693" type="line" smooth="yes"/>
      <point x="234" y="693"/>
      <point x="277" y="620"/>
      <point x="277" y="511" type="curve" smooth="yes"/>
      <point x="277" y="389"/>
      <point x="221" y="301"/>
      <point x="106" y="301" type="curve" smooth="yes"/>
      <point x="50" y="301" type="line"/>
      <point x="48" y="288" type="line"/>
    </contour>
    <contour>
      <point x="75" y="508" type="line"/>
      <point x="72" y="490" type="line"/>
      <point x="399" y="490" type="line"/>
      <point x="401" y="508" type="line"/>
    </contour>
  </outline>
</glyph>
<glyph name="seven.oldtab" format="2">
  <advance width="384"/>
  <outline>
    <contour>
      <point x="155" y="509" type="line" smooth="yes"/>
      <point x="113" y="509"/>
      <point x="95" y="501"/>
      <point x="87" y="459" type="curve" smooth="yes"/>
      <point x="69" y="368" type="line"/>
      <point x="56" y="368" type="line"/>
      <point x="77" y="549" type="line"/>
      <point x="385" y="549" type="line"/>
      <point x="382" y="521" type="line"/>
      <point x="273" y="350"/>
      <point x="183" y="181"/>
      <point x="137" y="-137" type="curve"/>
      <point x="100" y="-137" type="line"/>
      <point x="149" y="168"/>
      <point x="272" y="373"/>
      <point x="366" y="520" type="curve"/>
      <point x="368" y="509" type="line"/>
    </contour>
  </outline>
</glyph>
<glyph name="six.oldprop" format="2">
  <advance width="390"/>
  <outline>
    <contour>
      <point x="368" y="723" type="curve"/>
      <point x="368" y="740" type="line"/>
      <point x="164" y="709"/>
      <point x="35" y="471"/>
      <point x="35" y="249" type="curve" smooth="yes"/>
      <point x="35" y="80"/>
      <point x="106" y="-10"/>
      <point x="194" y="-10" type="curve" smooth="yes"/>
      <point x="291" y="-10"/>
      <point x="363" y="111"/>
      <point x="363" y="251" type="curve" smooth="yes"/>
      <point x="363" y="367"/>
      <point x="311" y="458"/>
      <point x="222" y="458" type="curve" smooth="yes"/>
      <point x="159" y="458"/>
      <point x="101" y="403"/>
      <point x="63" y="297" type="curve"/>
      <point x="68" y="275" type="line"/>
      <point x="107" y="384"/>
      <point x="158" y="440"/>
      <point x="219" y="440" type="curve" smooth="yes"/>
      <point x="289" y="440"/>
      <point x="325" y="357"/>
      <point x="325" y="252" type="curve" smooth="yes"/>
      <point x="325" y="232"/>
      <point x="324" y="213"/>
      <point x="322" y="195" type="curve" smooth="yes"/>
      <point x="310" y="92"/>
      <point x="264" y="8"/>
      <point x="194" y="8" type="curve" smooth="yes"/>
      <point x="126" y="8"/>
      <point x="73" y="85"/>
      <point x="73" y="241" type="curve" smooth="yes"/>
      <point x="73" y="267"/>
      <point x="74" y="292"/>
      <point x="76" y="316" type="curve" smooth="yes"/>
      <point x="98" y="534"/>
      <point x="215" y="698"/>
    </contour>
  </outline>
</glyph>
<glyph name="slash.uc" format="2">
  <advance width="288"/>
  <outline>
    <contour>
      <point x="328" y="741" type="line"/>
      <point x="-18" y="-36" type="line"/>
      <point x="-2" y="-36" type="line"/>
      <point x="344" y="741" type="line"/>
    </contour>
  </outline>
</glyph>
<glyph name="sterling.alt" format="2">
  <advance width="384"/>
  <outline>
    <contour>
      <point x="5" y="0" type="line"/>
      <point x="319" y="0" type="line"/>
      <point x="339" y="179" type="line"/>
      <point x="326" y="179" type="line"/>
      <point x="305" y="81" type="line" smooth="yes"/>
      <point x="297" y="44"/>
      <point x="272" y="36"/>
      <point x="212" y="36" type="curve"/>
      <point x="47" y="36" type="line"/>
      <point x="45" y="26" type="line"/>
      <point x="111" y="70"/>
      <point x="156" y="157"/>
      <point x="156" y="262" type="curve" smooth="yes"/>
      <point x="156" y="347"/>
      <point x="133" y="424"/>
      <point x="133" y="514" type="curve" smooth="yes"/>
      <point x="133" y="627"/>
      <point x="171" y="703"/>
      <point x="252" y="703" type="curve" smooth="yes"/>
      <point x="302" y="703"/>
      <point x="333" y="673"/>
      <point x="349" y="643" type="curve"/>
      <point x="350" y="648"/>
      <point x="343" y="667"/>
      <point x="334" y="674" type="curve"/>
      <point x="323" y="591" type="line"/>
      <point x="362" y="591" type="line"/>
      <point x="371" y="663" type="line"/>
      <point x="352" y="688"/>
      <point x="315" y="720"/>
      <point x="252" y="720" type="curve" smooth="yes"/>
      <point x="151" y="720"/>
      <point x="95" y="633"/>
      <point x="95" y="516" type="curve" smooth="yes"/>
      <point x="95" y="416"/>
      <point x="127" y="331"/>
      <point x="127" y="257" type="curve" smooth="yes"/>
      <point x="127" y="133"/>
      <point x="84" y="64"/>
      <point x="6" y="14" type="curve"/>
    </contour>
    <contour>
      <point x="42" y="350" type="line"/>
      <point x="39" y="333" type="line"/>
      <point x="286" y="333" type="line"/>
      <point x="288" y="350" type="line"/>
    </contour>
  </outline>
</glyph>
<glyph name="three.midprop" format="2">
  <advance width="383"/>
  <outline>
    <contour>
      <point x="197" y="283" type="line"/>
      <point x="285" y="290"/>
      <point x="344" y="361"/>
      <point x="344" y="462" type="curve" smooth="yes"/>
      <point x="344" y="560"/>
      <point x="292" y="618"/>
      <point x="212" y="618" type="curve" smooth="yes"/>
      <point x="152" y="618"/>
      <point x="109" y="582"/>
      <point x="87" y="559" type="curve"/>
      <point x="76" y="477" type="line"/>
      <point x="116" y="477" type="line"/>
      <point x="127" y="579" type="line"/>
      <point x="114" y="568"/>
      <point x="107" y="558"/>
      <point x="106" y="548" type="curve"/>
      <point x="141" y="585"/>
      <point x="174" y="600"/>
      <point x="211" y="600" type="curve" smooth="yes"/>
      <point x="274" y="600"/>
      <point x="307" y="552"/>
      <point x="307" y="462" type="curve" smooth="yes"/>
      <point x="307" y="357"/>
      <point x="259" y="292"/>
      <point x="168" y="292" type="curve" smooth="yes"/>
      <point x="129" y="292" type="line"/>
      <point x="126" y="275" type="line"/>
      <point x="168" y="275" type="line" smooth="yes"/>
      <point x="256" y="275"/>
      <point x="293" y="208"/>
      <point x="293" y="119" type="curve" smooth="yes"/>
      <point x="293" y="8"/>
      <point x="247" y="-72"/>
      <point x="170" y="-72" type="curve" smooth="yes"/>
      <point x="79" y="-72"/>
      <point x="31" y="8"/>
      <point x="14" y="90" type="curve"/>
      <point x="3" y="79" type="line"/>
      <point x="22" y="-20"/>
      <point x="81" y="-90"/>
      <point x="170" y="-90" type="curve" smooth="yes"/>
      <point x="266" y="-90"/>
      <point x="330" y="-2"/>
      <point x="330" y="117" type="curve" smooth="yes"/>
      <point x="330" y="197"/>
      <point x="297" y="275"/>
      <point x="194" y="290" type="curve"/>
      <point x="207" y="279" type="line"/>
      <point x="209" y="290" type="line"/>
    </contour>
  </outline>
</glyph>
<glyph name="three.oldtab" format="2">
  <advance width="384"/>
  <outline>
    <contour>
      <point x="175" y="-150" type="curve" smooth="yes"/>
      <point x="271" y="-150"/>
      <point x="336" y="-61"/>
      <point x="336" y="57" type="curve" smooth="yes"/>
      <point x="336" y="137"/>
      <point x="302" y="215"/>
      <point x="199" y="231" type="curve"/>
      <point x="212" y="219" type="line"/>
      <point x="215" y="231" type="line"/>
      <point x="202" y="223" type="line"/>
      <point x="290" y="230"/>
      <point x="350" y="301"/>
      <point x="350" y="402" type="curve" smooth="yes"/>
      <point x="350" y="500"/>
      <point x="296" y="558"/>
      <point x="218" y="558" type="curve" smooth="yes"/>
      <point x="157" y="558"/>
      <point x="114" y="522"/>
      <point x="91" y="499" type="curve"/>
      <point x="82" y="417" type="line"/>
      <point x="120" y="417" type="line"/>
      <point x="132" y="519" type="line"/>
      <point x="120" y="510"/>
      <point x="113" y="500"/>
      <point x="111" y="488" type="curve"/>
      <point x="146" y="525"/>
      <point x="178" y="540"/>
      <point x="217" y="540" type="curve" smooth="yes"/>
      <point x="279" y="540"/>
      <point x="313" y="492"/>
      <point x="313" y="402" type="curve" smooth="yes"/>
      <point x="313" y="297"/>
      <point x="264" y="232"/>
      <point x="172" y="232" type="curve" smooth="yes"/>
      <point x="133" y="232" type="line"/>
      <point x="131" y="215" type="line"/>
      <point x="173" y="215" type="line" smooth="yes"/>
      <point x="262" y="215"/>
      <point x="299" y="148"/>
      <point x="299" y="59" type="curve" smooth="yes"/>
      <point x="299" y="-52"/>
      <point x="253" y="-132"/>
      <point x="175" y="-132" type="curve" smooth="yes"/>
      <point x="84" y="-132"/>
      <point x="35" y="-51"/>
      <point x="19" y="32" type="curve"/>
      <point x="7" y="21" type="line"/>
      <point x="26" y="-80"/>
      <point x="86" y="-150"/>
    </contour>
  </outline>
</glyph>
<glyph name="two.midprop" format="2">
  <advance width="384"/>
  <outline>
    <contour>
      <point x="205" y="40" type="line" smooth="yes"/>
      <point x="266" y="40"/>
      <point x="291" y="50"/>
      <point x="299" y="90" type="curve" smooth="yes"/>
      <point x="317" y="173" type="line"/>
      <point x="330" y="173" type="line"/>
      <point x="310" y="0" type="line"/>
      <point x="-1" y="0" type="line"/>
      <point x="2" y="24" type="line"/>
      <point x="169" y="171"/>
      <point x="304" y="305"/>
      <point x="304" y="458" type="curve" smooth="yes"/>
      <point x="304" y="556"/>
      <point x="265" y="600"/>
      <point x="206" y="600" type="curve" smooth="yes"/>
      <point x="165" y="600"/>
      <point x="131" y="585"/>
      <point x="91" y="540" type="curve"/>
      <point x="94" y="551"/>
      <point x="101" y="561"/>
      <point x="113" y="571" type="curve"/>
      <point x="101" y="463" type="line"/>
      <point x="62" y="463" type="line"/>
      <point x="72" y="550" type="line"/>
      <point x="98" y="580"/>
      <point x="144" y="618"/>
      <point x="207" y="618" type="curve" smooth="yes"/>
      <point x="288" y="618"/>
      <point x="341" y="566"/>
      <point x="341" y="457" type="curve" smooth="yes"/>
      <point x="341" y="308"/>
      <point x="183" y="157"/>
      <point x="31" y="27" type="curve"/>
      <point x="28" y="40" type="line"/>
    </contour>
  </outline>
</glyph>
<glyph name="uni20B4.proportional" format="2">
  <advance width="409"/>
  <outline>
    <contour>
      <point x="330" y="439" type="line"/>
      <point x="353" y="467"/>
      <point x="373" y="517"/>
      <point x="373" y="579" type="curve" smooth="yes"/>
      <point x="373" y="663"/>
      <point x="324" y="720"/>
      <point x="244" y="720" type="curve" smooth="yes"/>
      <point x="186" y="720"/>
      <point x="141" y="688"/>
      <point x="119" y="659" type="curve"/>
      <point x="110" y="581" type="line"/>
      <point x="149" y="581" type="line"/>
      <point x="160" y="675" type="line"/>
      <point x="149" y="681"/>
      <point x="133" y="650"/>
      <point x="135" y="636" type="curve"/>
      <point x="155" y="675"/>
      <point x="191" y="703"/>
      <point x="240" y="703" type="curve" smooth="yes"/>
      <point x="308" y="703"/>
      <point x="339" y="650"/>
      <point x="339" y="584" type="curve" smooth="yes"/>
      <point x="339" y="517"/>
      <point x="315" y="465"/>
      <point x="283" y="442" type="curve"/>
    </contour>
    <contour>
      <point x="190" y="-10" type="curve" smooth="yes"/>
      <point x="254" y="-10"/>
      <point x="303" y="24"/>
      <point x="328" y="61" type="curve"/>
      <point x="339" y="151" type="line"/>
      <point x="301" y="151" type="line"/>
      <point x="286" y="35" type="line"/>
      <point x="300" y="35"/>
      <point x="316" y="60"/>
      <point x="312" y="82" type="curve"/>
      <point x="288" y="37"/>
      <point x="246" y="7"/>
      <point x="191" y="7" type="curve" smooth="yes"/>
      <point x="119" y="7"/>
      <point x="76" y="62"/>
      <point x="76" y="152" type="curve" smooth="yes"/>
      <point x="76" y="211"/>
      <point x="95" y="266"/>
      <point x="134" y="298" type="curve"/>
      <point x="88" y="297" type="line"/>
      <point x="57" y="259"/>
      <point x="41" y="212"/>
      <point x="41" y="153" type="curve" smooth="yes"/>
      <point x="41" y="56"/>
      <point x="97" y="-10"/>
    </contour>
    <contour>
      <point x="24" y="311" type="line"/>
      <point x="21" y="294" type="line"/>
      <point x="383" y="294" type="line"/>
      <point x="385" y="311" type="line"/>
    </contour>
    <contour>
      <point x="40" y="446" type="line"/>
      <point x="38" y="429" type="line"/>
      <point x="399" y="429" type="line"/>
      <point x="402" y="446" type="line"/>
    </contour>
  </outline>
</glyph>
<glyph name="w.alt" format="2">
  <advance width="526"/>
  <outline>
    <contour>
      <point x="46" y="518" type="line"/>
      <point x="44" y="503" type="line"/>
      <point x="60" y="501" type="line" smooth="yes"/>
      <point x="86" y="496"/>
      <point x="95" y="491"/>
      <point x="93" y="471" type="curve" smooth="yes"/>
      <point x="68" y="195" type="line" smooth="yes"/>
      <point x="64" y="155"/>
      <point x="61" y="118"/>
      <point x="61" y="91" type="curve" smooth="yes"/>
      <point x="61" y="28"/>
      <point x="86" y="-10"/>
      <point x="131" y="-10" type="curve" smooth="yes"/>
      <point x="180" y="-10"/>
      <point x="238" y="61"/>
      <point x="276" y="214" type="curve"/>
      <point x="268" y="237" type="line"/>
      <point x="237" y="89"/>
      <point x="179" y="11"/>
      <point x="137" y="11" type="curve" smooth="yes"/>
      <point x="109" y="11"/>
      <point x="96" y="40"/>
      <point x="96" y="90" type="curve" smooth="yes"/>
      <point x="96" y="119"/>
      <point x="98" y="151"/>
      <point x="103" y="191" type="curve" smooth="yes"/>
      <point x="134" y="518" type="line"/>
    </contour>
    <contour>
      <point x="290" y="518" type="line"/>
      <point x="257" y="195" type="line" smooth="yes"/>
      <point x="253" y="155"/>
      <point x="250" y="118"/>
      <point x="250" y="91" type="curve" smooth="yes"/>
      <point x="250" y="28"/>
      <point x="275" y="-10"/>
      <point x="320" y="-10" type="curve" smooth="yes"/>
      <point x="399" y="-10"/>
      <point x="504" y="170"/>
      <point x="506" y="518" type="curve"/>
      <point x="469" y="518" type="line"/>
      <point x="494" y="189"/>
      <point x="391" y="11"/>
      <point x="326" y="11" type="curve" smooth="yes"/>
      <point x="298" y="11"/>
      <point x="284" y="40"/>
      <point x="284" y="90" type="curve" smooth="yes"/>
      <point x="284" y="119"/>
      <point x="287" y="151"/>
      <point x="291" y="191" type="curve" smooth="yes"/>
      <point x="324" y="518" type="line"/>
    </contour>
  </outline>
</glyph>
<glyph name="y.alt" format="2">
  <advance width="364"/>
  <outline>
    <contour>
      <point x="122" y="-229" type="curve" smooth="yes"/>
      <point x="210" y="-229"/>
      <point x="260" y="-153"/>
      <point x="276" y="-18" type="curve" smooth="yes"/>
      <point x="341" y="518" type="line"/>
      <point x="306" y="518" type="line"/>
      <point x="242" y="-16" type="line" smooth="yes"/>
      <point x="226" y="-148"/>
      <point x="191" y="-212"/>
      <point x="122" y="-212" type="curve" smooth="yes"/>
      <point x="76" y="-212"/>
      <point x="38" y="-183"/>
      <point x="31" y="-147" type="curve"/>
      <point x="27" y="-174"/>
      <point x="34" y="-181"/>
      <point x="44" y="-182" type="curve"/>
      <point x="54" y="-105" type="line"/>
      <point x="16" y="-105" type="line"/>
      <point x="8" y="-166" type="line"/>
      <point x="27" y="-197"/>
      <point x="67" y="-229"/>
    </contour>
    <contour>
      <point x="46" y="518" type="line"/>
      <point x="44" y="503" type="line"/>
      <point x="60" y="501" type="line" smooth="yes"/>
      <point x="86" y="496"/>
      <point x="96" y="491"/>
      <point x="93" y="471" type="curve" smooth="yes"/>
      <point x="58" y="195" type="line" smooth="yes"/>
      <point x="54" y="158"/>
      <point x="51" y="122"/>
      <point x="51" y="96" type="curve" smooth="yes"/>
      <point x="51" y="31"/>
      <point x="78" y="-10"/>
      <point x="125" y="-10" type="curve" smooth="yes"/>
      <point x="188" y="-10"/>
      <point x="237" y="72"/>
      <point x="285" y="205" type="curve"/>
      <point x="278" y="219" type="line"/>
      <point x="230" y="92"/>
      <point x="185" y="11"/>
      <point x="133" y="11" type="curve" smooth="yes"/>
      <point x="101" y="11"/>
      <point x="86" y="42"/>
      <point x="86" y="94" type="curve" smooth="yes"/>
      <point x="86" y="123"/>
      <point x="89" y="155"/>
      <point x="93" y="192" type="curve" smooth="yes"/>
      <point x="135" y="518" type="line"/>
    </contour>
  </outline>
</glyph>
<glyph name="yen.proportional" format="2">
  <advance width="424"/>
  <outline>
    <contour>
      <point x="57" y="208" type="line"/>
      <point x="55" y="191" type="line"/>
      <point x="342" y="191" type="line"/>
      <point x="344" y="208" type="line"/>
    </contour>
    <contour>
      <point x="73" y="344" type="line"/>
      <point x="71" y="327" type="line"/>
      <point x="358" y="327" type="line"/>
      <point x="361" y="344" type="line"/>
    </contour>
    <contour>
      <point x="224" y="316" type="line"/>
      <point x="391" y="659" type="line" smooth="yes"/>
      <point x="407" y="690"/>
      <point x="425" y="695"/>
      <point x="445" y="695" type="curve" smooth="yes"/>
      <point x="448" y="695" type="line"/>
      <point x="450" y="710" type="line"/>
      <point x="326" y="710" type="line"/>
      <point x="324" y="695" type="line"/>
      <point x="337" y="695" type="line" smooth="yes"/>
      <point x="364" y="695"/>
      <point x="383" y="686"/>
      <point x="383" y="673" type="curve"/>
      <point x="218" y="337" type="line"/>
      <point x="231" y="348" type="line"/>
      <point x="146" y="684" type="line"/>
      <point x="147" y="691"/>
      <point x="178" y="695"/>
      <point x="201" y="695" type="curve" smooth="yes"/>
      <point x="212" y="695" type="line"/>
      <point x="214" y="710" type="line"/>
      <point x="71" y="710" type="line"/>
      <point x="68" y="695" type="line"/>
      <point x="72" y="695" type="line" smooth="yes"/>
      <point x="92" y="695"/>
      <point x="106" y="693"/>
      <point x="112" y="673" type="curve" smooth="yes"/>
      <point x="204" y="316" type="line"/>
    </contour>
    <contour>
      <point x="236" y="349" type="line"/>
      <point x="201" y="349" type="line"/>
      <point x="164" y="43" type="line" smooth="yes"/>
      <point x="161" y="21"/>
      <point x="136" y="15"/>
      <point x="105" y="15" type="curve" smooth="yes"/>
      <point x="95" y="15" type="line"/>
      <point x="92" y="0" type="line"/>
      <point x="259" y="0" type="line"/>
      <point x="261" y="15" type="line"/>
      <point x="250" y="15" type="line" smooth="yes"/>
      <point x="219" y="15"/>
      <point x="197" y="21"/>
      <point x="199" y="43" type="curve" smooth="yes"/>
    </contour>
  </outline>
</glyph>
<glyph name="zero.lintab" format="2">
  <advance width="384"/>
  <outline>
    <contour>
      <point x="163" y="-10" type="curve" smooth="yes"/>
      <point x="288" y="-10"/>
      <point x="366" y="213"/>
      <point x="366" y="451" type="curve" smooth="yes"/>
      <point x="366" y="623"/>
      <point x="307" y="720"/>
      <point x="226" y="720" type="curve" smooth="yes"/>
      <point x="101" y="720"/>
      <point x="22" y="497"/>
      <point x="22" y="258" type="curve" smooth="yes"/>
      <point x="22" y="87"/>
      <point x="83" y="-10"/>
    </contour>
    <contour>
      <point x="163" y="8" type="curve" smooth="yes"/>
      <point x="96" y="8"/>
      <point x="60" y="96"/>
      <point x="60" y="255" type="curve" smooth="yes"/>
      <point x="60" y="290"/>
      <point x="62" y="336"/>
      <point x="67" y="386" type="curve" smooth="yes"/>
      <point x="90" y="586"/>
      <point x="148" y="702"/>
      <point x="226" y="702" type="curve" smooth="yes"/>
      <point x="293" y="702"/>
      <point x="329" y="618"/>
      <point x="329" y="454" type="curve" smooth="yes"/>
      <point x="329" y="422"/>
      <point x="328" y="380"/>
      <point x="323" y="334" type="curve" smooth="yes"/>
      <point x="300" y="128"/>
      <point x="242" y="8"/>
    </contour>
  </outline>
</glyph>
<glyph name="zero.oldprop" format="2">
  <advance width="386"/>
  <outline>
    <contour>
      <point x="215" y="541" type="curve" smooth="yes"/>
      <point x="286" y="541"/>
      <point x="329" y="466"/>
      <point x="329" y="318" type="curve" smooth="yes"/>
      <point x="329" y="292"/>
      <point x="328" y="266"/>
      <point x="325" y="242" type="curve" smooth="yes"/>
      <point x="310" y="105"/>
      <point x="255" y="7"/>
      <point x="176" y="7" type="curve" smooth="yes"/>
      <point x="106" y="7"/>
      <point x="63" y="82"/>
      <point x="63" y="230" type="curve" smooth="yes"/>
      <point x="63" y="257"/>
      <point x="64" y="283"/>
      <point x="67" y="307" type="curve" smooth="yes"/>
      <point x="82" y="444"/>
      <point x="136" y="541"/>
    </contour>
    <contour>
      <point x="216" y="558" type="curve" smooth="yes"/>
      <point x="99" y="558"/>
      <point x="26" y="402"/>
      <point x="26" y="230" type="curve" smooth="yes"/>
      <point x="26" y="85"/>
      <point x="91" y="-10"/>
      <point x="176" y="-10" type="curve" smooth="yes"/>
      <point x="293" y="-10"/>
      <point x="366" y="146"/>
      <point x="366" y="318" type="curve" smooth="yes"/>
      <point x="366" y="463"/>
      <point x="301" y="558"/>
    </contour>
  </outline>
</glyph>
<glyph name="zero.slashold" format="2">
  <advance width="393"/>
  <outline>
    <contour>
      <point x="182" y="-10" type="curve" smooth="yes"/>
      <point x="299" y="-10"/>
      <point x="373" y="146"/>
      <point x="373" y="318" type="curve" smooth="yes"/>
      <point x="373" y="463"/>
      <point x="307" y="558"/>
      <point x="222" y="558" type="curve" smooth="yes"/>
      <point x="106" y="558"/>
      <point x="32" y="402"/>
      <point x="32" y="230" type="curve" smooth="yes"/>
      <point x="32" y="85"/>
      <point x="98" y="-10"/>
    </contour>
    <contour>
      <point x="73" y="104" type="line"/>
      <point x="339" y="425" type="line"/>
      <point x="335" y="446" type="line"/>
      <point x="67" y="121" type="line"/>
    </contour>
    <contour>
      <point x="183" y="7" type="curve" smooth="yes"/>
      <point x="113" y="7"/>
      <point x="69" y="82"/>
      <point x="69" y="230" type="curve" smooth="yes"/>
      <point x="69" y="257"/>
      <point x="71" y="283"/>
      <point x="74" y="307" type="curve" smooth="yes"/>
      <point x="88" y="444"/>
      <point x="143" y="541"/>
      <point x="221" y="541" type="curve" smooth="yes"/>
      <point x="292" y="541"/>
      <point x="336" y="466"/>
      <point x="336" y="318" type="curve" smooth="yes"/>
      <point x="336" y="292"/>
      <point x="334" y="266"/>
      <point x="331" y="242" type="curve" smooth="yes"/>
      <point x="317" y="105"/>
      <point x="261" y="7"/>
    </contour>
  </outline>
</glyph>
